<svg width="15" height="24" viewBox="0 0 15 24" fill="none" xmlns="http://www.w3.org/2000/svg">
<path d="M14.2104 10.6677C14.3869 10.8402 14.5271 11.0467 14.6229 11.275C14.7187 11.5032 14.7681 11.7486 14.7681 11.9965C14.7681 12.2444 14.7187 12.4897 14.6229 12.718C14.5271 12.9462 14.3869 13.1527 14.2104 13.3252L8.12261 19.2407L3.75855 23.4788C3.50054 23.729 3.17535 23.8971 2.82344 23.9624C2.47153 24.0278 2.10837 23.9873 1.77904 23.8462C1.4497 23.705 1.16868 23.4693 0.970937 23.1684C0.773193 22.8675 0.667447 22.5146 0.666751 22.1535L0.666751 1.8463C0.666106 1.48464 0.770956 1.13076 0.968182 0.828784C1.16541 0.526808 1.44626 0.290077 1.77587 0.148055C2.10547 0.00603391 2.46923 -0.0349984 2.82177 0.0300925C3.17432 0.0951835 3.50012 0.263571 3.75855 0.514161L8.12261 4.75231L14.2104 10.6677Z" fill="#BA0026"/>
</svg>
