<svg width="15" height="24" viewBox="0 0 15 24" fill="none" xmlns="http://www.w3.org/2000/svg">
<path d="M13.586 10.6677C13.763 10.8402 13.9037 11.0467 13.9998 11.275C14.0959 11.5032 14.1454 11.7486 14.1454 11.9965C14.1454 12.2444 14.0959 12.4897 13.9998 12.718C13.9037 12.9462 13.763 13.1527 13.586 13.3252L7.47916 19.2407L3.10146 23.4788C2.84265 23.729 2.51645 23.8971 2.16343 23.9624C1.81042 24.0278 1.44613 23.9873 1.11577 23.8462C0.785402 23.705 0.503502 23.4693 0.30514 23.1684C0.106778 22.8675 0.000701533 22.5146 2.96451e-06 22.1535L2.96451e-06 1.8463C-0.000643746 1.48464 0.104533 1.13076 0.302376 0.828784C0.500218 0.526808 0.781945 0.290077 1.11258 0.148055C1.44322 0.00603391 1.80811 -0.0349984 2.16176 0.0300925C2.51541 0.0951835 2.84223 0.263571 3.10146 0.514161L7.47916 4.75231L13.586 10.6677Z" fill="white"/>
</svg>
