<svg width="68" height="95" viewBox="0 0 68 95" fill="none" xmlns="http://www.w3.org/2000/svg">
<path d="M64.3208 94.4868H4.01468C2.2094 94.4868 0.745117 93.0256 0.745117 91.2242V4.15629C0.745117 2.35489 2.2094 0.893799 4.01468 0.893799H64.3208C66.1261 0.893799 67.5903 2.35489 67.5903 4.15629V91.2143C67.5903 93.0157 66.1261 94.4868 64.3208 94.4868Z" fill="#BA0026"/>
<path d="M25.2109 71.3179C24.5243 71.3179 23.9345 71.1712 23.4412 70.878C22.948 70.5847 22.5681 70.1681 22.3015 69.6282C22.0348 69.0883 21.9015 68.4451 21.9015 67.6986C21.9015 66.9521 22.0348 66.3122 22.3015 65.779C22.5681 65.2391 22.948 64.8225 23.4412 64.5292C23.9345 64.236 24.5243 64.0893 25.2109 64.0893C25.6974 64.0893 26.144 64.166 26.5506 64.3193C26.9639 64.4659 27.3138 64.6859 27.6004 64.9792L27.2705 65.669C26.9639 65.3891 26.6439 65.1858 26.3106 65.0591C25.984 64.9325 25.6208 64.8692 25.2209 64.8692C24.4544 64.8692 23.8578 65.1125 23.4312 65.599C23.0113 66.0856 22.8014 66.7855 22.8014 67.6986C22.8014 68.6051 23.0113 69.305 23.4312 69.7982C23.8578 70.2914 24.4544 70.538 25.2209 70.538C25.6208 70.538 25.984 70.4747 26.3106 70.3481C26.6439 70.2214 26.9639 70.0181 27.2705 69.7382L27.6004 70.4281C27.3138 70.7147 26.9639 70.9346 26.5506 71.0879C26.144 71.2412 25.6974 71.3179 25.2109 71.3179ZM30.6727 71.3179C30.1862 71.3179 29.7629 71.2146 29.403 71.0079C29.0497 70.7947 28.7765 70.4981 28.5832 70.1181C28.3899 69.7382 28.2932 69.2883 28.2932 68.7684C28.2932 68.2552 28.3899 67.8119 28.5832 67.4387C28.7765 67.0587 29.0497 66.7655 29.403 66.5588C29.7629 66.3455 30.1862 66.2389 30.6727 66.2389C31.1593 66.2389 31.5792 66.3455 31.9325 66.5588C32.2924 66.7655 32.569 67.0587 32.7623 67.4387C32.9556 67.8119 33.0523 68.2552 33.0523 68.7684C33.0523 69.2883 32.9556 69.7382 32.7623 70.1181C32.569 70.4981 32.2924 70.7947 31.9325 71.0079C31.5792 71.2146 31.1593 71.3179 30.6727 71.3179ZM30.6727 70.618C31.146 70.618 31.5192 70.4547 31.7925 70.1281C32.0658 69.8015 32.2024 69.3483 32.2024 68.7684C32.2024 68.1885 32.0658 67.7386 31.7925 67.4187C31.5192 67.0987 31.146 66.9388 30.6727 66.9388C30.1995 66.9388 29.8262 67.0987 29.553 67.4187C29.2797 67.7386 29.1431 68.1885 29.1431 68.7684C29.1431 69.3483 29.2797 69.8015 29.553 70.1281C29.8329 70.4547 30.2062 70.618 30.6727 70.618ZM36.3731 71.3179C35.7865 71.3179 35.3466 71.1646 35.0534 70.858C34.7601 70.5447 34.6134 70.1015 34.6134 69.5282V67.0087H33.6336V66.3289H34.6334V64.8492H35.4633V66.3289H37.1229V67.0087H35.4633V69.4483C35.4633 69.8282 35.5433 70.1148 35.7032 70.3081C35.8699 70.4947 36.1331 70.588 36.4931 70.588C36.613 70.588 36.733 70.5747 36.853 70.548C36.973 70.5214 37.0829 70.4881 37.1829 70.4481L37.3329 71.1079C37.2196 71.1679 37.0729 71.2179 36.893 71.2579C36.7197 71.2979 36.5464 71.3179 36.3731 71.3179ZM38.0906 65.1291V64.1793H39.1304V65.1291H38.0906ZM38.1906 71.2279V66.3289H39.0404V71.2279H38.1906ZM40.4402 71.2279V70.678L43.4796 66.7688L43.4996 67.0087H40.4802V66.3289H44.2894V66.8788L41.23 70.808L41.21 70.538H44.3994V71.2279H40.4402ZM47.1421 71.3179C46.8022 71.3179 46.4956 71.2546 46.2223 71.1279C45.9557 70.9946 45.7424 70.8147 45.5824 70.588C45.4291 70.3614 45.3525 70.1081 45.3525 69.8282C45.3525 69.4616 45.4491 69.1716 45.6424 68.9584C45.8424 68.7451 46.159 68.5951 46.5922 68.5084C47.0255 68.4151 47.5987 68.3685 48.3119 68.3685H48.8918V68.9384H48.3419C47.9419 68.9384 47.6053 68.9517 47.3321 68.9784C47.0588 69.005 46.8388 69.0517 46.6722 69.1183C46.5056 69.1783 46.3856 69.2616 46.3123 69.3683C46.239 69.4749 46.2023 69.6116 46.2023 69.7782C46.2023 70.0515 46.3023 70.2681 46.5022 70.4281C46.7022 70.588 46.9655 70.668 47.2921 70.668C47.572 70.668 47.8186 70.6047 48.0319 70.4781C48.2519 70.3447 48.4252 70.1681 48.5518 69.9482C48.6851 69.7282 48.7518 69.4816 48.7518 69.2083V68.0685C48.7518 67.6686 48.6551 67.3787 48.4618 67.1987C48.2685 67.0121 47.9686 66.9188 47.562 66.9188C47.2754 66.9188 46.9888 66.9621 46.7022 67.0487C46.4222 67.1287 46.1323 67.262 45.8324 67.4487L45.5524 66.8288C45.7391 66.7021 45.9457 66.5955 46.1723 66.5088C46.4056 66.4222 46.6455 66.3555 46.8922 66.3089C47.1388 66.2622 47.3787 66.2389 47.612 66.2389C48.0386 66.2389 48.3952 66.3056 48.6818 66.4389C48.9751 66.5722 49.1984 66.7788 49.3517 67.0587C49.505 67.3387 49.5816 67.6986 49.5816 68.1385V71.2279H48.8118V70.1181H48.8518C48.7784 70.3514 48.6618 70.558 48.5018 70.738C48.3485 70.918 48.1552 71.0613 47.9219 71.1679C47.6953 71.2679 47.4354 71.3179 47.1421 71.3179Z" fill="white"/>
<path d="M12.2925 81.3179C11.706 81.3179 11.2661 81.1646 10.9728 80.858C10.6795 80.5447 10.5329 80.1015 10.5329 79.5282V77.0087H9.55309V76.3289H10.5529V74.8492H11.3827V76.3289H13.0424V77.0087H11.3827V79.4483C11.3827 79.8282 11.4627 80.1148 11.6227 80.3081C11.7893 80.4947 12.0526 80.588 12.4125 80.588C12.5325 80.588 12.6525 80.5747 12.7724 80.548C12.8924 80.5214 13.0024 80.4881 13.1024 80.4481L13.2524 81.1079C13.139 81.1679 12.9924 81.2179 12.8124 81.2579C12.6391 81.2979 12.4658 81.3179 12.2925 81.3179ZM15.8997 81.3179C15.4998 81.3179 15.1632 81.2446 14.8899 81.0979C14.6233 80.9513 14.4233 80.7347 14.29 80.4481C14.1567 80.1548 14.0901 79.7949 14.0901 79.3683V76.3289H14.9399V79.3383C14.9399 79.6116 14.9766 79.8448 15.0499 80.0381C15.1299 80.2248 15.2532 80.3681 15.4198 80.4681C15.5864 80.5614 15.8031 80.608 16.0697 80.608C16.3496 80.608 16.5962 80.5414 16.8095 80.4081C17.0295 80.2748 17.1995 80.0948 17.3194 79.8682C17.4461 79.6416 17.5094 79.3849 17.5094 79.0983V76.3289H18.3592V81.2279H17.5594V80.1281H17.6194C17.4727 80.508 17.2494 80.8013 16.9495 81.0079C16.6562 81.2146 16.3063 81.3179 15.8997 81.3179ZM22.8126 81.2279V74.1793H25.682C26.4152 74.1793 26.9817 74.3393 27.3816 74.6592C27.7882 74.9792 27.9915 75.4324 27.9915 76.0189C27.9915 76.4522 27.8682 76.8121 27.6216 77.0987C27.3816 77.3787 27.065 77.5653 26.6718 77.6586V77.5786C26.9651 77.6186 27.2217 77.7119 27.4416 77.8586C27.6682 77.9986 27.8449 78.1885 27.9715 78.4285C28.0982 78.6684 28.1615 78.955 28.1615 79.2883C28.1615 79.7082 28.0682 80.0615 27.8815 80.3481C27.7016 80.6347 27.435 80.8546 27.0817 81.0079C26.7284 81.1546 26.3019 81.2279 25.802 81.2279H22.8126ZM23.6624 80.518H25.742C25.9553 80.518 26.1452 80.5014 26.3119 80.4681C26.4785 80.4347 26.6218 80.3847 26.7418 80.3181C26.8684 80.2514 26.9717 80.1681 27.0517 80.0681C27.1384 79.9682 27.2017 79.8515 27.2417 79.7182C27.2883 79.5849 27.3117 79.4383 27.3117 79.2783C27.3117 79.0983 27.2883 78.9417 27.2417 78.8084C27.2017 78.6751 27.1384 78.5584 27.0517 78.4585C26.9651 78.3585 26.8584 78.2752 26.7318 78.2085C26.6118 78.1419 26.4685 78.0952 26.3019 78.0685C26.1352 78.0352 25.9486 78.0185 25.742 78.0185H23.6624V80.518ZM23.6624 77.3087H25.582C26.0952 77.3087 26.4818 77.2054 26.7418 76.9988C27.0084 76.7855 27.1417 76.4789 27.1417 76.0789C27.1417 75.6857 27.0117 75.3891 26.7518 75.1891C26.4918 74.9892 26.1019 74.8892 25.582 74.8892H23.6624V77.3087ZM31.7629 81.3179C31.2764 81.3179 30.8531 81.2146 30.4932 81.0079C30.1399 80.7947 29.8667 80.4981 29.6734 80.1181C29.4801 79.7382 29.3834 79.2883 29.3834 78.7684C29.3834 78.2552 29.4801 77.8119 29.6734 77.4387C29.8667 77.0587 30.1399 76.7655 30.4932 76.5588C30.8531 76.3455 31.2764 76.2389 31.7629 76.2389C32.2495 76.2389 32.6694 76.3455 33.0227 76.5588C33.3826 76.7655 33.6592 77.0587 33.8525 77.4387C34.0458 77.8119 34.1425 78.2552 34.1425 78.7684C34.1425 79.2883 34.0458 79.7382 33.8525 80.1181C33.6592 80.4981 33.3826 80.7947 33.0227 81.0079C32.6694 81.2146 32.2495 81.3179 31.7629 81.3179ZM31.7629 80.618C32.2362 80.618 32.6094 80.4547 32.8827 80.1281C33.156 79.8015 33.2926 79.3483 33.2926 78.7684C33.2926 78.1885 33.156 77.7386 32.8827 77.4187C32.6094 77.0987 32.2362 76.9388 31.7629 76.9388C31.2897 76.9388 30.9164 77.0987 30.6432 77.4187C30.3699 77.7386 30.2333 78.1885 30.2333 78.7684C30.2333 79.3483 30.3699 79.8015 30.6432 80.1281C30.9231 80.4547 31.2964 80.618 31.7629 80.618ZM37.4121 81.3179C36.9656 81.3179 36.5756 81.2146 36.2424 81.0079C35.9091 80.7947 35.6525 80.4981 35.4725 80.1181C35.2926 79.7315 35.2026 79.285 35.2026 78.7784C35.2026 78.2585 35.2926 77.8119 35.4725 77.4387C35.6525 77.0587 35.9058 76.7655 36.2324 76.5588C36.5656 76.3455 36.9556 76.2389 37.4021 76.2389C37.8354 76.2389 38.2053 76.3455 38.5119 76.5588C38.8252 76.7655 39.0418 77.0487 39.1618 77.4087H39.1018V74.1793H39.9516V81.2279H39.1518V80.1081H39.1918C39.0718 80.4814 38.8518 80.778 38.5319 80.998C38.2186 81.2112 37.8454 81.3179 37.4121 81.3179ZM37.5821 80.628C38.0553 80.628 38.4286 80.4647 38.7019 80.1381C38.9818 79.8115 39.1218 79.3583 39.1218 78.7784C39.1218 78.1918 38.9818 77.7386 38.7019 77.4187C38.4286 77.0921 38.0587 76.9288 37.5921 76.9288C37.1189 76.9288 36.7423 77.0921 36.4623 77.4187C36.189 77.7386 36.0524 78.1918 36.0524 78.7784C36.0524 79.3583 36.189 79.8115 36.4623 80.1381C36.7423 80.4647 37.1155 80.628 37.5821 80.628ZM43.8941 81.3179C43.3609 81.3179 42.901 81.2179 42.5144 81.0179C42.1278 80.8113 41.8312 80.518 41.6246 80.1381C41.4179 79.7582 41.3146 79.305 41.3146 78.7784C41.3146 78.2785 41.4113 77.8386 41.6046 77.4587C41.8045 77.0787 42.0845 76.7821 42.4444 76.5688C42.8043 76.3489 43.2242 76.2389 43.7042 76.2389C44.1707 76.2389 44.564 76.3389 44.8839 76.5388C45.2105 76.7388 45.4605 77.0221 45.6338 77.3887C45.8071 77.7486 45.8937 78.1818 45.8937 78.6884V78.9884H41.9545V78.4085H45.3338L45.1639 78.5684C45.1639 78.0352 45.0406 77.622 44.7939 77.3287C44.5473 77.0287 44.1874 76.8788 43.7142 76.8788C43.3875 76.8788 43.1043 76.9554 42.8643 77.1087C42.631 77.2554 42.4511 77.4653 42.3244 77.7386C42.1978 78.0052 42.1345 78.3218 42.1345 78.6884V78.7684C42.1345 79.175 42.2011 79.5149 42.3344 79.7882C42.4744 80.0615 42.6777 80.2714 42.9443 80.4181C43.2109 80.558 43.5309 80.628 43.9041 80.628C44.1841 80.628 44.4607 80.588 44.7339 80.508C45.0072 80.4214 45.2672 80.2781 45.5138 80.0781L45.8037 80.678C45.5638 80.8846 45.2705 81.0446 44.9239 81.1579C44.584 81.2646 44.2407 81.3179 43.8941 81.3179ZM49.3487 83.1175C48.9421 83.1175 48.5489 83.0609 48.169 82.9476C47.7957 82.8343 47.4658 82.6709 47.1792 82.4577L47.4591 81.8178C47.6524 81.9511 47.849 82.0611 48.049 82.1477C48.2556 82.241 48.4622 82.3077 48.6689 82.3477C48.8822 82.3943 49.0988 82.4177 49.3187 82.4177C49.8186 82.4177 50.1986 82.2877 50.4585 82.0277C50.7251 81.7678 50.8584 81.4012 50.8584 80.928V79.9082H50.8984C50.7918 80.2681 50.5785 80.558 50.2585 80.778C49.9386 80.9913 49.5687 81.0979 49.1488 81.0979C48.6955 81.0979 48.2989 80.998 47.959 80.798C47.6257 80.5914 47.3658 80.3048 47.1792 79.9382C46.9992 79.5716 46.9092 79.1483 46.9092 78.6684C46.9092 78.1818 46.9992 77.7553 47.1792 77.3887C47.3658 77.0221 47.6257 76.7388 47.959 76.5388C48.2989 76.3389 48.6955 76.2389 49.1488 76.2389C49.5753 76.2389 49.9486 76.3489 50.2685 76.5688C50.5885 76.7821 50.8018 77.0754 50.9084 77.4487H50.8584V76.3289H51.6783V80.828C51.6783 81.3146 51.5883 81.7278 51.4083 82.0677C51.2284 82.4143 50.9651 82.6743 50.6185 82.8476C50.2719 83.0275 49.8486 83.1175 49.3487 83.1175ZM49.2987 80.4081C49.772 80.4081 50.1486 80.2514 50.4285 79.9382C50.7085 79.6182 50.8484 79.195 50.8484 78.6684C50.8484 78.1352 50.7085 77.7119 50.4285 77.3987C50.1486 77.0854 49.772 76.9288 49.2987 76.9288C48.8255 76.9288 48.4489 77.0854 48.169 77.3987C47.8957 77.7119 47.759 78.1352 47.759 78.6684C47.759 79.195 47.8957 79.6182 48.169 79.9382C48.4489 80.2514 48.8255 80.4081 49.2987 80.4081ZM54.9107 81.3179C54.5707 81.3179 54.2641 81.2546 53.9908 81.1279C53.7242 80.9946 53.5109 80.8147 53.351 80.588C53.1977 80.3614 53.121 80.1081 53.121 79.8282C53.121 79.4616 53.2177 79.1716 53.411 78.9584C53.6109 78.7451 53.9275 78.5951 54.3608 78.5084C54.794 78.4151 55.3672 78.3685 56.0804 78.3685H56.6603V78.9384H56.1104C55.7105 78.9384 55.3739 78.9517 55.1006 78.9784C54.8273 79.005 54.6074 79.0517 54.4408 79.1183C54.2741 79.1783 54.1541 79.2616 54.0808 79.3683C54.0075 79.4749 53.9709 79.6116 53.9709 79.7782C53.9709 80.0515 54.0708 80.2681 54.2708 80.4281C54.4708 80.588 54.734 80.668 55.0606 80.668C55.3406 80.668 55.5872 80.6047 55.8005 80.4781C56.0204 80.3447 56.1937 80.1681 56.3204 79.9482C56.4537 79.7282 56.5203 79.4816 56.5203 79.2083V78.0685C56.5203 77.6686 56.4237 77.3787 56.2304 77.1987C56.0371 77.0121 55.7372 76.9188 55.3306 76.9188C55.044 76.9188 54.7574 76.9621 54.4708 77.0487C54.1908 77.1287 53.9009 77.262 53.6009 77.4487L53.321 76.8288C53.5076 76.7021 53.7142 76.5955 53.9409 76.5088C54.1741 76.4222 54.4141 76.3555 54.6607 76.3089C54.9073 76.2622 55.1473 76.2389 55.3806 76.2389C55.8072 76.2389 56.1637 76.3056 56.4504 76.4389C56.7436 76.5722 56.9669 76.7788 57.1202 77.0587C57.2735 77.3387 57.3502 77.6986 57.3502 78.1385V81.2279H56.5803V80.1181H56.6203C56.547 80.3514 56.4304 80.558 56.2704 80.738C56.1171 80.918 55.9238 81.0613 55.6905 81.1679C55.4639 81.2679 55.2039 81.3179 54.9107 81.3179Z" fill="white"/>
<path d="M50.3501 52.8043H17.9855C17.0227 52.8043 16.2505 52.0337 16.2505 51.073V29.7764C16.2505 20.6993 23.6221 13.3436 32.7186 13.3436H35.6171C44.7137 13.3436 52.0851 20.6993 52.0851 29.7764V51.083C52.0851 52.0337 51.3129 52.8043 50.3501 52.8043Z" stroke="white" stroke-miterlimit="10" stroke-linecap="round" stroke-linejoin="round"/>
<path d="M22.8398 52.8043V32.4484H45.4961V52.8043" stroke="white" stroke-miterlimit="10" stroke-linecap="round" stroke-linejoin="round"/>
<path d="M22.8398 32.4484H21.7165C21.0045 32.4484 20.4229 31.868 20.4229 31.1574V30.2067C20.4229 29.4961 21.0045 28.9157 21.7165 28.9157H46.5893C47.3013 28.9157 47.8831 29.4961 47.8831 30.2067V31.1574C47.8831 31.868 47.3013 32.4484 46.5893 32.4484H45.4961" stroke="white" stroke-miterlimit="10" stroke-linecap="round" stroke-linejoin="round"/>
<path d="M22.8198 36.5917H45.486" stroke="white" stroke-miterlimit="10" stroke-linecap="round" stroke-linejoin="round"/>
<path d="M22.8398 40.6848H45.4961" stroke="white" stroke-miterlimit="10" stroke-linecap="round" stroke-linejoin="round"/>
<path d="M22.8398 44.7881H45.4961" stroke="white" stroke-miterlimit="10" stroke-linecap="round" stroke-linejoin="round"/>
<path d="M22.8398 48.8812H45.4961" stroke="white" stroke-miterlimit="10" stroke-linecap="round" stroke-linejoin="round"/>
<path d="M19.6406 39.1937V52.7443" stroke="white" stroke-miterlimit="10" stroke-linecap="round" stroke-linejoin="round"/>
<path d="M48.6455 39.1937V52.7443" stroke="white" stroke-miterlimit="10" stroke-linecap="round" stroke-linejoin="round"/>
<path d="M28.4964 20.6592H38.7864C40.1705 20.6592 41.3038 21.7801 41.3038 23.1711C41.3038 24.5522 40.1805 25.6831 38.7864 25.6831H28.4964C27.1123 25.6831 25.979 24.5622 25.979 23.1711C25.979 21.7801 27.1023 20.6592 28.4964 20.6592Z" stroke="white" stroke-miterlimit="10" stroke-linecap="round" stroke-linejoin="round"/>
</svg>
