<svg width="10" height="9" viewBox="0 0 10 9" fill="none" xmlns="http://www.w3.org/2000/svg">
<path fill-rule="evenodd" clip-rule="evenodd" d="M8.28995 5.87983C7.91995 5.65983 7.42996 5.41004 6.98996 5.59004C6.64996 5.73004 6.43994 6.25998 6.21994 6.52998C6.10994 6.66998 5.96996 6.69007 5.79996 6.62007C4.52996 6.11007 3.55996 5.27005 2.85996 4.10005C2.73996 3.92005 2.75995 3.78006 2.90995 3.61006C3.11995 3.36006 3.38998 3.07994 3.43998 2.73994C3.49998 2.39994 3.33998 2.00991 3.19998 1.70991C3.01998 1.32991 2.81998 0.780019 2.43998 0.570019C2.08998 0.370019 1.62997 0.47994 1.30997 0.73994C0.76997 1.17994 0.509992 1.87 0.519992 2.55C0.519992 2.74 0.549999 2.93983 0.589999 3.12983C0.699999 3.57983 0.909987 3.99985 1.13999 4.39985C1.31999 4.69985 1.50994 4.98998 1.71994 5.27998C2.39994 6.19998 3.23994 7.00005 4.21994 7.60005C4.70994 7.90005 5.23 8.16004 5.78 8.34004C6.39 8.54004 6.93 8.74983 7.59 8.62983C8.28 8.49983 8.95996 8.06986 9.23996 7.40986C9.31996 7.20986 9.35998 6.98999 9.31998 6.78999C9.21998 6.33999 8.63995 6.08983 8.28995 5.87983Z" stroke="white" stroke-width="0.5" stroke-miterlimit="10"/>
</svg>
