<svg width="8" height="12" viewBox="0 0 8 12" fill="none" xmlns="http://www.w3.org/2000/svg">
<path d="M3.92999 11.1999C3.87999 11.1999 3.81998 11.17 3.79998 11.12L1.13 5.39983C0.689998 4.43983 0.759991 3.32985 1.30999 2.41985C1.84999 1.52985 2.74 0.999873 3.76 0.939873C3.87 0.929873 3.98997 0.929873 4.09997 0.939873C5.11997 0.989873 6.01998 1.52985 6.54998 2.41985C7.09998 3.32985 7.16997 4.43983 6.72997 5.39983L4.05999 11.12C4.02999 11.16 3.97999 11.1999 3.92999 11.1999ZM3.92999 1.2199C3.87999 1.2199 3.83001 1.2199 3.77001 1.2199C2.84001 1.2699 2.02997 1.75999 1.53997 2.55999C1.03997 3.37999 0.979998 4.39995 1.38 5.26995L3.92999 10.7099L6.47997 5.26995C6.87997 4.39995 6.82 3.37999 6.32 2.55999C5.83 1.75999 5.02002 1.2699 4.09002 1.2199C4.03002 1.2199 3.97999 1.2199 3.92999 1.2199Z" fill="white"/>
<path d="M3.92998 11.2499C3.84998 11.2499 3.78999 11.2098 3.74999 11.1398L1.08001 5.41985C0.630009 4.43985 0.700001 3.30982 1.26 2.38982C1.81 1.48982 2.72 0.939824 3.76 0.889824C3.87 0.879824 3.98998 0.879824 4.10998 0.889824C5.14998 0.939824 6.05998 1.48982 6.60998 2.38982C7.16998 3.30982 7.23997 4.43985 6.78997 5.41985L4.10998 11.1398C4.06998 11.1998 3.99998 11.2499 3.92998 11.2499ZM3.92998 0.989922C3.86998 0.989922 3.82 0.989922 3.76 0.989922C2.76 1.03992 1.87997 1.56987 1.34997 2.43987C0.809967 3.32987 0.739974 4.43005 1.16997 5.37005L3.84002 11.09C3.87002 11.15 3.96999 11.15 3.99999 11.09L6.66997 5.37005C7.09997 4.43005 7.02998 3.32987 6.48998 2.43987C5.95998 1.56987 5.08001 1.03992 4.08001 0.989922C4.04001 0.989922 3.98998 0.989922 3.92998 0.989922ZM3.92998 10.77C3.90998 10.77 3.89 10.7599 3.88 10.7399L1.33001 5.29998C0.920009 4.40998 0.989992 3.37997 1.49999 2.53997C1.99999 1.71997 2.83001 1.21985 3.77001 1.16985C3.88001 1.16985 3.98002 1.16985 4.09002 1.16985C5.03002 1.21985 5.85998 1.71997 6.35998 2.53997C6.86998 3.37997 6.93002 4.40998 6.53002 5.29998L3.97997 10.7399C3.96997 10.7599 3.94998 10.77 3.92998 10.77ZM3.92998 1.27996C3.87998 1.27996 3.83002 1.27996 3.78002 1.27996C2.87002 1.32996 2.07997 1.81002 1.59997 2.59002C1.10997 3.40002 1.04999 4.38993 1.43999 5.24993L3.93999 10.59L6.43999 5.24993C6.82999 4.38993 6.77002 3.40002 6.28002 2.59002C5.80002 1.80002 4.99997 1.31996 4.09997 1.27996C4.02997 1.27996 3.97998 1.27996 3.92998 1.27996Z" fill="white"/>
<path d="M3.92999 5.73999C2.99999 5.73999 2.22998 4.98004 2.22998 4.04004C2.22998 3.10004 2.98999 2.34009 3.92999 2.34009C4.86999 2.34009 5.63 3.10004 5.63 4.04004C5.63 4.98004 4.85999 5.73999 3.92999 5.73999ZM3.92999 2.62988C3.14999 2.62988 2.52002 3.26004 2.52002 4.04004C2.52002 4.82004 3.14999 5.44995 3.92999 5.44995C4.70999 5.44995 5.34003 4.82004 5.34003 4.04004C5.34003 3.26004 4.70999 2.62988 3.92999 2.62988Z" fill="white"/>
<path d="M3.92999 5.79004C2.96999 5.79004 2.17999 5.01004 2.17999 4.04004C2.17999 3.08004 2.95999 2.29004 3.92999 2.29004C4.88999 2.29004 5.67999 3.07004 5.67999 4.04004C5.67999 5.01004 4.88999 5.79004 3.92999 5.79004ZM3.92999 2.3999C3.01999 2.3999 2.28998 3.14004 2.28998 4.04004C2.28998 4.95004 3.02999 5.67993 3.92999 5.67993C4.83999 5.67993 5.57001 4.94004 5.57001 4.04004C5.57001 3.14004 4.82999 2.3999 3.92999 2.3999ZM3.92999 5.51001C3.11999 5.51001 2.46002 4.85004 2.46002 4.04004C2.46002 3.23004 3.11999 2.57007 3.92999 2.57007C4.73999 2.57007 5.39001 3.23004 5.39001 4.04004C5.39001 4.85004 4.73999 5.51001 3.92999 5.51001ZM3.92999 2.67993C3.17999 2.67993 2.57001 3.29004 2.57001 4.04004C2.57001 4.79004 3.17999 5.3999 3.92999 5.3999C4.67999 5.3999 5.28998 4.79004 5.28998 4.04004C5.28998 3.29004 4.67999 2.67993 3.92999 2.67993Z" fill="white"/>
</svg>
