<svg width="15" height="14" viewBox="0 0 15 14" fill="none" xmlns="http://www.w3.org/2000/svg">
<path d="M11.14 3.04C10.71 3.04 10.36 3.39 10.36 3.82C10.36 4.25 10.71 4.6 11.14 4.6C11.57 4.6 11.92 4.25 11.92 3.82C11.92 3.39 11.57 3.04 11.14 3.04Z" fill="white"/>
<path d="M7.66 4.04C5.85 4.04 4.37 5.51 4.37 7.33C4.37 9.14 5.84 10.62 7.66 10.62C9.47 10.62 10.95 9.15 10.95 7.33C10.95 5.52 9.48 4.04 7.66 4.04ZM7.66 9.43C6.5 9.43 5.55 8.49 5.55 7.32C5.55 6.16 6.49 5.21 7.66 5.21C8.82 5.21 9.77 6.15 9.77 7.32C9.77 8.49 8.82 9.43 7.66 9.43Z" fill="white"/>
<path d="M10.27 14H4.94C2.73 14 0.93 12.2 0.93 9.99V4.66C0.93 2.45 2.73 0.65 4.94 0.65H10.27C12.48 0.65 14.28 2.45 14.28 4.66V9.99C14.28 12.2 12.48 14 10.27 14ZM4.94 1.91C3.42 1.91 2.19 3.14 2.19 4.66V9.99C2.19 11.51 3.42 12.74 4.94 12.74H10.27C11.79 12.74 13.02 11.51 13.02 9.99V4.66C13.02 3.14 11.78 1.91 10.27 1.91H4.94Z" fill="white"/>
</svg>
