<svg width="20" height="20" viewBox="0 0 20 20" fill="none" xmlns="http://www.w3.org/2000/svg">
<path d="M0.839966 6.53003H4.76001V19.1399H0.839966V6.53003ZM2.81006 0.27002C4.07006 0.27002 5.07996 1.29004 5.07996 2.54004C5.07996 3.79004 4.06006 4.81006 2.81006 4.81006C1.55006 4.81006 0.530029 3.79004 0.530029 2.54004C0.530029 1.29004 1.55006 0.27002 2.81006 0.27002Z" fill="white"/>
<path d="M7.22998 6.53003H10.99V8.25H11.04C11.56 7.26 12.84 6.20996 14.75 6.20996C18.72 6.20996 19.45 8.81997 19.45 12.22V19.1399H15.53V13.01C15.53 11.55 15.5 9.66992 13.49 9.66992C11.45 9.66992 11.14 11.2599 11.14 12.9099V19.1499H7.21997V6.53003H7.22998Z" fill="white"/>
</svg>
