<svg width="12" height="14" viewBox="0 0 12 14" fill="none" xmlns="http://www.w3.org/2000/svg">
<path d="M7.92004 8.47C7.84004 8.44 7.32002 8.21 7.65002 7.23C8.49002 6.37 9.13 4.98 9.13 3.61C9.13 1.51 7.72999 0.41 6.10999 0.41C4.48999 0.41 3.08997 1.51 3.08997 3.61C3.08997 4.98 3.72995 6.38 4.56995 7.24C4.89995 8.1 4.30994 8.42 4.18994 8.47C2.48994 9.09 0.48999 10.21 0.48999 11.32C0.48999 11.62 0.48999 11.44 0.48999 11.74C0.48999 13.25 3.41 13.59 6.12 13.59C8.83 13.59 11.72 13.25 11.72 11.74C11.72 11.44 11.72 11.62 11.72 11.32C11.71 10.17 9.71004 9.06 7.92004 8.47Z" fill="white"/>
</svg>
