<svg width="20" height="20" viewBox="0 0 20 20" fill="none" xmlns="http://www.w3.org/2000/svg">
<path d="M15 3.63989C14.39 3.63989 13.89 4.14 13.89 4.75C13.89 5.36 14.39 5.86011 15 5.86011C15.61 5.86011 16.11 5.36 16.11 4.75C16.11 4.14 15.61 3.63989 15 3.63989Z" fill="white"/>
<path d="M10.08 5.06006C7.51996 5.06006 5.43005 7.13996 5.43005 9.70996C5.43005 12.27 7.51996 14.3601 10.08 14.3601C12.64 14.3601 14.73 12.27 14.73 9.70996C14.73 7.13996 12.65 5.06006 10.08 5.06006ZM10.08 12.6799C8.43996 12.6799 7.09998 11.34 7.09998 9.69995C7.09998 8.05995 8.43996 6.71997 10.08 6.71997C11.72 6.71997 13.0601 8.05995 13.0601 9.69995C13.0601 11.34 11.73 12.6799 10.08 12.6799Z" fill="white"/>
<path d="M13.77 19.1399H6.22998C3.09998 19.1399 0.560059 16.6 0.560059 13.47V5.92993C0.560059 2.79993 3.09998 0.26001 6.22998 0.26001H13.77C16.9 0.26001 19.4399 2.79993 19.4399 5.92993V13.47C19.4399 16.6 16.9 19.1399 13.77 19.1399ZM6.23999 2.04004C4.08999 2.04004 2.34998 3.78993 2.34998 5.92993V13.47C2.34998 15.62 4.09999 17.3601 6.23999 17.3601H13.78C15.93 17.3601 17.67 15.61 17.67 13.47V5.92993C17.67 3.77993 15.92 2.04004 13.78 2.04004H6.23999Z" fill="white"/>
</svg>
