<svg width="15" height="14" viewBox="0 0 15 14" fill="none" xmlns="http://www.w3.org/2000/svg">
<path d="M1.07 5.09H3.85V14H1.07V5.09ZM2.46 0.66C3.35 0.66 4.07 1.38 4.07 2.27C4.07 3.16 3.35 3.88 2.46 3.88C1.57 3.88 0.849998 3.16 0.849998 2.27C0.849998 1.38 1.57 0.66 2.46 0.66Z" fill="white"/>
<path d="M5.58 5.09H8.24V6.31H8.28C8.65 5.61 9.55 4.87 10.9 4.87C13.71 4.87 14.22 6.72 14.22 9.12V14H11.45V9.67C11.45 8.64 11.43 7.31 10.01 7.31C8.57 7.31 8.35 8.44 8.35 9.6V14H5.58V5.09Z" fill="white"/>
</svg>
