<svg width="294" height="34" viewBox="0 0 294 34" fill="none" xmlns="http://www.w3.org/2000/svg">
<path d="M124.69 27.32C124.69 28.84 124.09 30.07 122.89 30.99C121.69 31.92 120.13 32.38 118.2 32.38C116.95 32.38 115.62 32.14 114.21 31.67C113.75 31.52 113.17 31.28 112.47 30.96L114.17 27.01C114.83 27.49 115.46 27.85 116.06 28.08C116.66 28.31 117.26 28.43 117.84 28.43C118.24 28.43 118.56 28.35 118.81 28.2C119.06 28.05 119.19 27.85 119.19 27.61C119.19 27.26 118.66 26.98 117.61 26.76C116.19 26.45 115.2 26.13 114.65 25.8C113.58 25.14 113.04 24.11 113.04 22.69C113.04 21.21 113.63 20 114.81 19.06C115.99 18.11 117.52 17.64 119.4 17.64C120.3 17.64 121.11 17.74 121.83 17.93C122.55 18.12 123.36 18.46 124.26 18.94L122.75 22.54C121.79 21.85 120.77 21.51 119.7 21.51C118.87 21.51 118.46 21.75 118.46 22.22C118.46 22.55 118.99 22.84 120.07 23.06C121.51 23.38 122.51 23.72 123.07 24.09C124.14 24.78 124.69 25.86 124.69 27.32Z" fill="white"/>
<path d="M136.76 17.83H130.59L125.41 32.1H131.07L131.62 30.28H135.72L136.27 32.1H141.96L136.76 17.83ZM132.54 26.9L133.67 22.29L134.78 26.9H132.54Z" fill="white"/>
<path d="M158.38 32.1H152.9L148.38 25.13L148.4 32.1H143.06V17.83H148.43L153.08 25.03V17.83H158.38V32.1Z" fill="white"/>
<path d="M178.01 21.93H173.47V23.39H177.44V27.09H173.45V32.1H168.03V17.83H178.01V21.93Z" fill="white"/>
<path d="M190.05 26.52C191.85 25.94 192.76 24.66 192.76 22.69C192.76 21.28 192.22 20.12 191.13 19.2C190.04 18.28 188.67 17.82 187 17.82H179.91V32.09H185.32V27.41L187.74 32.09H193.91L190.05 26.52ZM187.11 23.9C186.85 24.12 186.49 24.23 186.03 24.23H185.32V21.7H186.03C187.01 21.7 187.5 22.13 187.5 22.98C187.5 23.37 187.37 23.68 187.11 23.9Z" fill="white"/>
<path d="M205.12 17.83H198.95L193.77 32.1H199.44L199.99 30.28H204.1L204.65 32.1H210.34L205.12 17.83ZM200.9 26.9L202.03 22.29L203.14 26.9H200.9Z" fill="white"/>
<path d="M226.74 32.1H221.26L216.74 25.13L216.77 32.1H211.42V17.83H216.79L221.44 25.03V17.83H226.74V32.1Z" fill="white"/>
<path d="M240.17 31.91C239.7 32.03 239.31 32.1 239.02 32.12C238.09 32.3 237.35 32.4 236.8 32.4C234.57 32.4 232.7 31.71 231.2 30.34C229.7 28.97 228.95 27.25 228.95 25.19C228.95 23.1 229.7 21.32 231.21 19.85C232.72 18.38 234.55 17.65 236.73 17.65C237.49 17.65 238.3 17.74 239.14 17.92C239.42 17.97 239.76 18.05 240.17 18.17V23.27C239.28 22.54 238.39 22.18 237.49 22.18C236.63 22.18 235.92 22.45 235.34 23C234.77 23.55 234.48 24.22 234.48 25.01C234.48 25.79 234.76 26.44 235.33 26.96C235.9 27.49 236.61 27.75 237.46 27.75C238.35 27.75 239.25 27.45 240.17 26.84V31.91Z" fill="white"/>
<path d="M247.87 17.83H242.5V32.1H247.87V17.83Z" fill="white"/>
<path d="M261.85 27.32C261.85 28.84 261.25 30.07 260.05 30.99C258.85 31.92 257.29 32.38 255.36 32.38C254.11 32.38 252.78 32.14 251.37 31.67C250.91 31.52 250.33 31.28 249.63 30.96L251.33 27.01C251.99 27.49 252.62 27.85 253.22 28.08C253.82 28.31 254.42 28.43 255 28.43C255.4 28.43 255.72 28.35 255.97 28.2C256.22 28.05 256.35 27.85 256.35 27.61C256.35 27.26 255.82 26.98 254.77 26.76C253.35 26.45 252.36 26.13 251.81 25.8C250.74 25.14 250.2 24.11 250.2 22.69C250.2 21.21 250.79 20 251.97 19.06C253.15 18.11 254.68 17.64 256.56 17.64C257.46 17.64 258.27 17.74 258.99 17.93C259.71 18.12 260.52 18.46 261.42 18.94L259.91 22.54C258.95 21.85 257.93 21.51 256.86 21.51C256.03 21.51 255.62 21.75 255.62 22.22C255.62 22.55 256.15 22.84 257.23 23.06C258.67 23.38 259.67 23.72 260.23 24.09C261.31 24.78 261.85 25.86 261.85 27.32Z" fill="white"/>
<path d="M274.82 31.91C274.35 32.03 273.96 32.1 273.67 32.12C272.74 32.3 272 32.4 271.45 32.4C269.22 32.4 267.35 31.71 265.85 30.34C264.35 28.97 263.6 27.25 263.6 25.19C263.6 23.1 264.35 21.32 265.86 19.85C267.37 18.38 269.2 17.65 271.38 17.65C272.14 17.65 272.95 17.74 273.79 17.92C274.07 17.97 274.41 18.05 274.82 18.17V23.27C273.93 22.54 273.04 22.18 272.14 22.18C271.28 22.18 270.57 22.45 270 23C269.43 23.55 269.14 24.22 269.14 25.01C269.14 25.79 269.42 26.44 269.99 26.96C270.56 27.49 271.27 27.75 272.12 27.75C273.01 27.75 273.91 27.45 274.83 26.84V31.91H274.82Z" fill="white"/>
<path d="M290.92 19.62C289.42 18.25 287.46 17.57 285.03 17.57C282.6 17.57 280.63 18.25 279.14 19.62C277.64 20.99 276.89 22.79 276.89 25.02C276.89 27.24 277.64 29.02 279.14 30.38C280.64 31.74 282.6 32.42 285.03 32.42C287.46 32.42 289.43 31.74 290.92 30.38C292.42 29.02 293.17 27.23 293.17 25.02C293.17 22.79 292.42 20.99 290.92 19.62ZM286.92 27.04C286.42 27.57 285.79 27.84 285.03 27.84C284.25 27.84 283.6 27.57 283.09 27.04C282.58 26.51 282.32 25.83 282.32 25C282.32 24.18 282.57 23.49 283.09 22.94C283.6 22.39 284.25 22.12 285.03 22.12C285.79 22.12 286.42 22.39 286.92 22.92C287.42 23.45 287.67 24.14 287.67 24.98C287.67 25.82 287.42 26.51 286.92 27.04Z" fill="white"/>
<path d="M119.6 10.72C119.35 10.93 119.03 11.03 118.64 11.03H117.28V8.72H118.41C119.45 8.72 119.97 9.11 119.97 9.89C119.97 10.24 119.84 10.52 119.6 10.72ZM124.26 8.44C123.77 7.83 123.1 7.41 122.26 7.17C123.63 6.69 124.32 5.7 124.32 4.2C124.32 3.08 123.87 2.17 122.96 1.45C122.06 0.729997 120.9 0.379997 119.5 0.379997H112.18V14.44H120.05C121.53 14.44 122.72 14.08 123.63 13.37C124.54 12.66 125 11.72 125 10.56C125 9.75 124.75 9.05 124.26 8.44ZM119.09 5.5C118.87 5.69 118.55 5.78 118.15 5.78H117.28V3.7H118.29C118.63 3.7 118.91 3.79 119.12 3.98C119.33 4.17 119.43 4.41 119.43 4.72C119.42 5.05 119.31 5.31 119.09 5.5Z" fill="white"/>
<path d="M140.4 2.13C138.92 0.779997 136.99 0.110001 134.59 0.110001C132.19 0.110001 130.26 0.779997 128.78 2.13C127.3 3.48 126.56 5.25 126.56 7.45C126.56 9.63 127.3 11.4 128.78 12.74C130.26 14.08 132.19 14.75 134.59 14.75C136.99 14.75 138.92 14.08 140.4 12.74C141.88 11.4 142.62 9.64 142.62 7.45C142.62 5.25 141.88 3.48 140.4 2.13ZM136.46 9.44C135.97 9.97 135.35 10.23 134.6 10.23C133.83 10.23 133.2 9.97 132.69 9.44C132.19 8.91 131.93 8.25 131.93 7.43C131.93 6.62 132.18 5.94 132.69 5.4C133.19 4.86 133.83 4.59 134.6 4.59C135.35 4.59 135.98 4.85 136.46 5.38C136.95 5.91 137.19 6.58 137.19 7.41C137.2 8.24 136.95 8.92 136.46 9.44Z" fill="white"/>
<path d="M156.78 2.33C155.26 1.02 153.1 0.360001 150.32 0.360001H144.78V14.42H151.63C153.85 14.42 155.62 13.8 156.96 12.56C158.3 11.32 158.97 9.66 158.97 7.6C158.97 5.36 158.24 3.6 156.78 2.33ZM152.87 9.48C152.34 9.96 151.59 10.2 150.64 10.2H150.15V4.73H150.76C151.67 4.73 152.39 4.97 152.9 5.45C153.42 5.93 153.67 6.6 153.67 7.45C153.66 8.33 153.4 9 152.87 9.48Z" fill="white"/>
<path d="M171.1 14.43H161.14V0.370003H170.97V4.18H166.45V5.52H170.56V9.21H166.45V10.46H171.1V14.43Z" fill="white"/>
<path d="M189.11 6.95C189.11 9.46 188.36 11.41 186.85 12.79C185.42 14.09 183.5 14.74 181.11 14.74C178.73 14.74 176.79 14.07 175.3 12.73C173.81 11.39 173.06 9.64 173.06 7.47C173.06 5.29 173.82 3.5 175.33 2.1C176.84 0.699998 178.77 0 181.1 0C182.76 0 184.21 0.309998 185.45 0.919998C186.69 1.53 187.66 2.45 188.35 3.67L183.45 5.38C182.92 4.68 182.22 4.32 181.35 4.32C180.49 4.32 179.79 4.63 179.24 5.25C178.69 5.87 178.41 6.66 178.41 7.62C178.41 8.53 178.67 9.28 179.19 9.87C179.71 10.46 180.38 10.76 181.19 10.76C182.34 10.76 183.04 10.32 183.3 9.45H180.91V6.05H189.08L189.11 6.95Z" fill="white"/>
<path d="M201.17 0.370003H195.09L189.98 14.43H195.56L196.1 12.64H200.15L200.69 14.43H206.29L201.17 0.370003ZM197.01 9.3L198.13 4.75L199.22 9.3H197.01Z" fill="white"/>
<path d="M218.72 9.72C218.72 11.22 218.13 12.43 216.95 13.34C215.77 14.25 214.23 14.71 212.33 14.71C211.09 14.71 209.78 14.47 208.4 14C207.95 13.85 207.38 13.62 206.68 13.3L208.35 9.4C209 9.87 209.62 10.22 210.21 10.45C210.81 10.68 211.39 10.79 211.96 10.79C212.35 10.79 212.67 10.72 212.92 10.57C213.17 10.42 213.29 10.22 213.29 9.98C213.29 9.63 212.77 9.36 211.73 9.15C210.33 8.85 209.36 8.53 208.81 8.2C207.76 7.56 207.23 6.53 207.23 5.14C207.23 3.68 207.81 2.49 208.97 1.56C210.13 0.629998 211.64 0.160004 213.49 0.160004C214.38 0.160004 215.18 0.249997 215.89 0.449997C216.6 0.639997 217.4 0.970002 218.29 1.44L216.8 4.99C215.85 4.31 214.85 3.97 213.8 3.97C212.99 3.97 212.58 4.2 212.58 4.67C212.58 5 213.11 5.28 214.16 5.5C215.58 5.81 216.56 6.15 217.12 6.51C218.18 7.22 218.72 8.28 218.72 9.72Z" fill="white"/>
<path d="M0.130001 0.0800018H24.29C33.84 0.0800018 33.89 15.12 24.29 15.07H14.85V8.24L7.65 15.81L14.85 23.33V16.56H25.89C36.24 16.56 36.24 32.56 25.89 32.56H0.130001V0.0800018Z" fill="white"/>
<path d="M42.84 0.0699997H66.53V15.06H60.77C71.07 15.86 71.12 31.54 60.77 32.56H35.21V16.6H49.67V23.48L57.25 15.85L49.67 8.22V15.1H42.84C32.71 15.11 32.49 0.0699997 42.84 0.0699997Z" fill="white"/>
<path d="M70.51 32.54H90.48V25.6H99.02V16.58H85.24V23.47L78.08 15.94L85.29 8.36V15.09H103.82V0.090004H78.13C73.8 0.090004 70.49 3.08 70.49 8.15V32.54H70.51Z" fill="white"/>
<path d="M101.33 30.44C101.37 30.44 101.4 30.4 101.44 30.36C101.48 30.32 101.51 30.28 101.51 30.17C101.51 30.09 101.47 30.06 101.44 30.02C101.4 29.98 101.37 29.94 101.33 29.94V29.29H101.37C101.69 29.29 101.9 29.37 102.08 29.52C102.22 29.63 102.33 29.86 102.33 30.13C102.33 30.32 102.26 30.47 102.19 30.59C102.12 30.7 102.01 30.78 101.87 30.78L102.47 31.81H101.55L101.34 31.35V30.44H101.33ZM101.12 29.95V30.44H101.26H101.33V31.35L101.12 30.97V31.81H100.31V29.3H101.33V29.95H101.26H101.12Z" fill="white"/>
<path d="M101.23 33.34C99.77 33.34 98.57 32.07 98.57 30.5C98.57 28.94 99.76 27.66 101.23 27.66C102.69 27.66 103.89 28.93 103.89 30.5C103.89 32.07 102.7 33.34 101.23 33.34ZM101.23 28.2C100.06 28.2 99.1 29.24 99.1 30.51C99.1 31.78 100.06 32.82 101.23 32.82C102.41 32.82 103.36 31.78 103.36 30.51C103.36 29.23 102.41 28.2 101.23 28.2Z" fill="white"/>
</svg>
