<svg width="294" height="34" viewBox="0 0 294 34" fill="none" xmlns="http://www.w3.org/2000/svg">
<g clip-path="url(#clip0_12_310)">
<path d="M124.555 27.1977C124.573 27.9067 124.418 28.6096 124.105 29.2464C123.792 29.8833 123.329 30.4353 122.755 30.8555C121.4 31.8253 119.757 32.3139 118.089 32.2429C116.726 32.224 115.375 31.9841 114.09 31.5326C113.498 31.3255 112.918 31.0884 112.35 30.8223L114.043 26.8791C114.625 27.3156 115.261 27.6749 115.936 27.9479C116.503 28.1721 117.106 28.2891 117.716 28.2931C118.055 28.3077 118.391 28.2296 118.689 28.0674C118.801 28.014 118.897 27.9304 118.964 27.826C119.031 27.7216 119.067 27.6005 119.069 27.4765C119.069 27.1247 118.536 26.8127 117.483 26.6335C116.455 26.4606 115.457 26.1385 114.523 25.6775C113.998 25.3552 113.57 24.8962 113.287 24.3499C113.004 23.8036 112.876 23.1908 112.917 22.5774C112.906 21.8786 113.06 21.187 113.367 20.5585C113.673 19.93 114.124 19.3822 114.683 18.9594C116.003 17.971 117.626 17.471 119.276 17.5454C120.094 17.5364 120.909 17.6346 121.702 17.8375C122.548 18.0798 123.364 18.4161 124.135 18.8399L122.622 22.4247C121.739 21.769 120.67 21.4109 119.569 21.4024C118.742 21.4024 118.329 21.6347 118.329 22.106C118.329 22.4379 118.869 22.7168 119.935 22.9491C120.987 23.125 122.002 23.4703 122.942 23.9714C123.476 24.3163 123.909 24.7972 124.195 25.3644C124.481 25.9316 124.61 26.5645 124.568 27.1977" fill="#5D5C60"/>
<path d="M136.632 17.7446H130.46L125.281 31.9508H130.947L131.493 30.1385H135.599L136.152 31.9508H141.838L136.632 17.7446ZM132.426 26.7729L133.559 22.179L134.666 26.7729H132.426Z" fill="#5D5C60"/>
<path d="M158.248 31.9508H152.769L148.25 25.007L148.276 31.9508H142.931V17.7446H148.296L152.949 24.9141V17.7446H158.248V31.9508Z" fill="#5D5C60"/>
<path d="M177.884 21.8206H173.338V23.2744H177.31V26.9654H173.318V31.9508H167.906V17.7446H177.884V21.8206Z" fill="#5D5C60"/>
<path d="M189.921 26.4011C190.751 26.1838 191.478 25.6819 191.973 24.9837C192.468 24.2854 192.699 23.4357 192.627 22.584C192.639 21.9195 192.498 21.2612 192.215 20.6594C191.932 20.0576 191.514 19.5283 190.994 19.1121C189.831 18.1734 188.365 17.6875 186.868 17.7446H179.783V31.9508H185.195V27.3039L187.622 31.9508H193.794L189.921 26.4011ZM186.982 23.8121C186.675 24.0449 186.294 24.1603 185.909 24.1374H185.195V21.6148H185.909C186.882 21.6148 187.375 22.0396 187.375 22.8894C187.383 23.0627 187.351 23.2355 187.283 23.3952C187.215 23.5548 187.112 23.6973 186.982 23.8121Z" fill="#5D5C60"/>
<path d="M204.991 17.7446H198.826L193.64 31.9508H199.306L199.859 30.1385H203.958L204.511 31.9508H210.197L204.991 17.7446ZM200.772 26.7729L201.905 22.179L203.018 26.7729H200.772Z" fill="#5D5C60"/>
<path d="M226.614 31.9508H221.135L216.616 25.007L216.636 31.9508H211.29V17.7446H216.662L221.315 24.9141V17.7446H226.614V31.9508Z" fill="#5D5C60"/>
<path d="M240.044 31.7782C239.669 31.8793 239.285 31.9481 238.898 31.984C238.165 32.1412 237.42 32.2323 236.671 32.2562C234.611 32.3203 232.606 31.5848 231.079 30.2049C230.353 29.562 229.775 28.7696 229.386 27.8825C228.997 26.9953 228.806 26.0346 228.826 25.0668C228.812 24.0738 229.005 23.0886 229.394 22.1741C229.783 21.2597 230.359 20.4362 231.086 19.756C231.811 19.041 232.674 18.4786 233.622 18.1023C234.57 17.7259 235.584 17.5433 236.605 17.5653C237.415 17.5708 238.222 17.6642 239.011 17.8441C239.36 17.9037 239.705 17.9858 240.044 18.0898V23.1483C239.31 22.4874 238.367 22.1044 237.378 22.0662C236.984 22.0548 236.591 22.121 236.223 22.2612C235.855 22.4013 235.518 22.6125 235.232 22.8827C234.957 23.1364 234.739 23.4448 234.592 23.788C234.445 24.1311 234.372 24.5012 234.379 24.8743C234.371 25.24 234.443 25.603 234.589 25.9386C234.735 26.2742 234.952 26.5746 235.225 26.8193C235.807 27.346 236.572 27.6269 237.358 27.6027C238.331 27.5731 239.272 27.2566 240.064 26.6932L240.044 31.7782Z" fill="#5D5C60"/>
<path d="M247.736 17.7446H242.37V31.9508H247.736V17.7446Z" fill="#5D5C60"/>
<path d="M261.733 27.1977C261.752 27.9075 261.597 28.6111 261.282 29.2482C260.968 29.8853 260.502 30.4368 259.927 30.8555C258.571 31.8253 256.928 32.3139 255.261 32.2429C253.898 32.224 252.547 31.9841 251.262 31.5326C250.809 31.3799 250.222 31.141 249.522 30.8223L251.215 26.8791C251.798 27.3143 252.434 27.6735 253.108 27.9479C253.675 28.1715 254.278 28.2885 254.888 28.2931C255.227 28.3083 255.564 28.2302 255.861 28.0674C255.973 28.014 256.069 27.9304 256.136 27.826C256.203 27.7216 256.239 27.6005 256.241 27.4765C256.241 27.1247 255.714 26.8127 254.655 26.6334C253.628 26.4621 252.633 26.14 251.702 25.6775C251.175 25.3563 250.747 24.8974 250.464 24.3509C250.181 23.8043 250.053 23.191 250.095 22.5774C250.083 21.8783 250.236 21.1862 250.543 20.5574C250.85 19.9286 251.302 19.3811 251.862 18.9594C253.179 17.971 254.8 17.4709 256.447 17.5454C257.268 17.5366 258.086 17.6348 258.88 17.8375C259.724 18.0812 260.537 18.4174 261.306 18.8399L259.793 22.4247C258.914 21.7691 257.846 21.4109 256.747 21.4023C255.921 21.4023 255.508 21.6347 255.508 22.106C255.508 22.4379 256.041 22.7168 257.114 22.9491C258.163 23.1259 259.176 23.4712 260.113 23.9714C260.647 24.3177 261.078 24.799 261.362 25.366C261.647 25.9329 261.775 26.5652 261.733 27.1977Z" fill="#5D5C60"/>
<path d="M274.697 31.7782C274.321 31.8787 273.938 31.9476 273.551 31.984C272.818 32.1408 272.073 32.2319 271.325 32.2562C269.262 32.3172 267.256 31.5822 265.726 30.2049C265.001 29.5606 264.425 28.7677 264.038 27.8808C263.65 26.9939 263.46 26.0339 263.479 25.0668C263.465 24.0738 263.658 23.0886 264.047 22.1741C264.436 21.2597 265.012 20.4362 265.739 19.756C266.464 19.041 267.327 18.4786 268.275 18.1023C269.223 17.7259 270.237 17.5433 271.258 17.5653C272.068 17.5708 272.875 17.6642 273.664 17.8441C274.013 17.9037 274.358 17.9858 274.697 18.0898V23.1483C273.963 22.4884 273.019 22.1055 272.031 22.0662C271.637 22.0548 271.244 22.121 270.876 22.2612C270.508 22.4013 270.171 22.6125 269.885 22.8827C269.609 23.1358 269.39 23.4439 269.242 23.7871C269.093 24.1303 269.02 24.5007 269.025 24.8743C269.019 25.2404 269.092 25.6036 269.239 25.9392C269.386 26.2748 269.604 26.5749 269.878 26.8193C270.46 27.346 271.225 27.6269 272.011 27.6027C272.984 27.5731 273.925 27.2566 274.717 26.6932L274.697 31.7782Z" fill="#5D5C60"/>
<path d="M290.794 19.5237C289.114 18.204 287.038 17.4863 284.898 17.4863C282.759 17.4863 280.682 18.204 279.003 19.5237C278.261 20.2051 277.675 21.0386 277.288 21.9669C276.9 22.8952 276.719 23.8961 276.757 24.9008C276.719 25.9006 276.9 26.8967 277.288 27.8196C277.676 28.7425 278.261 29.5701 279.003 30.2448C280.684 31.5611 282.76 32.2767 284.898 32.2767C287.037 32.2767 289.113 31.5611 290.794 30.2448C291.537 29.5709 292.123 28.7435 292.511 27.8204C292.899 26.8972 293.079 25.9008 293.04 24.9008C293.079 23.8959 292.899 22.8946 292.511 21.9661C292.123 21.0376 291.537 20.2042 290.794 19.5237ZM286.795 26.9123C286.554 27.1718 286.261 27.3771 285.935 27.5145C285.608 27.6519 285.256 27.7181 284.902 27.7089C284.54 27.7188 284.181 27.6531 283.847 27.5158C283.513 27.3786 283.211 27.173 282.962 26.9123C282.453 26.375 282.177 25.6593 282.196 24.9207C282.171 24.1633 282.446 23.4265 282.962 22.8695C283.208 22.6034 283.509 22.393 283.843 22.2521C284.178 22.1113 284.539 22.0434 284.902 22.0529C285.256 22.0436 285.608 22.1099 285.935 22.2473C286.261 22.3847 286.554 22.59 286.795 22.8495C287.273 23.4256 287.535 24.1499 287.535 24.8975C287.535 25.6451 287.273 26.3694 286.795 26.9455" fill="#5D5C60"/>
<path d="M119.462 10.6613C119.19 10.8768 118.85 10.9876 118.502 10.9734H117.169V8.67645H118.296C119.336 8.67645 119.862 9.06812 119.862 9.84482C119.867 10.001 119.835 10.1562 119.769 10.2979C119.703 10.4397 119.605 10.5642 119.482 10.6613M124.148 8.391C123.636 7.7636 122.935 7.31676 122.148 7.11642C122.78 6.93398 123.329 6.54088 123.704 6.00303C124.079 5.46518 124.257 4.81529 124.208 4.16231C124.222 3.63251 124.108 3.10715 123.876 2.63017C123.644 2.15318 123.301 1.73843 122.875 1.42063C121.879 0.679254 120.658 0.30185 119.416 0.351841H112.084V14.3523H119.949C121.229 14.4137 122.493 14.0365 123.528 13.2835C123.958 12.9575 124.304 12.5336 124.535 12.0474C124.767 11.5612 124.879 11.0267 124.861 10.4887C124.871 9.72548 124.612 8.9829 124.128 8.391M118.949 5.4568C118.684 5.66258 118.352 5.76416 118.016 5.74226H117.143V3.67106H118.149C118.45 3.65672 118.745 3.75633 118.976 3.94988C119.079 4.04669 119.161 4.16346 119.217 4.29303C119.273 4.4226 119.302 4.56222 119.302 4.70334C119.302 4.84445 119.273 4.98408 119.217 5.11365C119.161 5.24322 119.079 5.35999 118.976 5.4568" fill="#5D5C60"/>
<path d="M140.278 2.11103C138.627 0.802898 136.579 0.0907364 134.469 0.0907364C132.359 0.0907364 130.312 0.802898 128.66 2.11103C127.958 2.80092 127.4 3.62305 127.019 4.52964C126.638 5.43622 126.442 6.40917 126.442 7.39191C126.442 8.37466 126.638 9.34761 127.019 10.2542C127.4 11.1608 127.958 11.9829 128.66 12.6728C130.317 13.9676 132.363 14.6712 134.469 14.6712C136.575 14.6712 138.621 13.9676 140.278 12.6728C140.979 11.982 141.536 11.1596 141.915 10.2531C142.295 9.34665 142.491 8.37416 142.491 7.39191C142.491 6.40967 142.295 5.43718 141.915 4.53072C141.536 3.62426 140.979 2.80183 140.278 2.11103ZM136.332 9.41332C136.096 9.67059 135.807 9.87429 135.485 10.0106C135.163 10.1469 134.816 10.2126 134.466 10.2033C134.11 10.2128 133.756 10.1473 133.428 10.0111C133.099 9.875 132.803 9.67128 132.559 9.41332C132.307 9.14801 132.109 8.83535 131.979 8.49347C131.849 8.1516 131.788 7.78732 131.8 7.42179C131.784 6.68491 132.056 5.97081 132.559 5.43025C132.801 5.16784 133.096 4.96026 133.425 4.82165C133.754 4.68304 134.109 4.61665 134.466 4.627C134.815 4.6164 135.163 4.68088 135.485 4.81606C135.807 4.95123 136.096 5.15392 136.332 5.41034C136.806 5.97694 137.065 6.69102 137.065 7.42843C137.065 8.16583 136.806 8.87991 136.332 9.44651" fill="#5D5C60"/>
<path d="M156.648 2.31018C155.124 0.982494 152.969 0.318649 150.183 0.318649H144.644V14.3191H151.496C153.447 14.4125 155.358 13.7486 156.828 12.467C157.497 11.8329 158.021 11.0634 158.366 10.2102C158.711 9.35708 158.869 8.44018 158.827 7.52136C158.879 6.53951 158.709 5.55863 158.329 4.651C157.95 3.74336 157.371 2.9321 156.635 2.27699M152.722 9.3934C152.096 9.90536 151.298 10.1616 150.489 10.1104H149.996V4.66683H150.602C151.384 4.62166 152.153 4.87847 152.749 5.38378C153.248 5.92807 153.524 6.63839 153.524 7.37532C153.524 8.11225 153.248 8.82256 152.749 9.36685" fill="#5D5C60"/>
<path d="M170.972 14.3523H161.007V0.351837H170.838V4.14903H166.319V5.48336H170.432V9.15442H166.319V10.3958H170.972V14.3523Z" fill="#5D5C60"/>
<path d="M188.981 6.91062C188.981 9.41332 188.221 11.3517 186.722 12.7259C185.127 14.0829 183.071 14.7791 180.976 14.671C178.857 14.7647 176.782 14.0528 175.171 12.6794C174.434 12.0235 173.852 11.2142 173.465 10.3091C173.078 9.40386 172.896 8.42492 172.931 7.4417C172.907 6.44671 173.096 5.45803 173.487 4.54204C173.878 3.62605 174.461 2.80395 175.197 2.13094C176.775 0.71284 178.846 -0.0372354 180.97 0.0398333C182.472 0.00567454 183.962 0.319268 185.322 0.955937C186.551 1.54708 187.566 2.50245 188.228 3.69098L183.322 5.39706C183.086 5.06428 182.77 4.79458 182.404 4.61168C182.038 4.42879 181.632 4.3383 181.223 4.34818C180.823 4.32481 180.423 4.39145 180.053 4.54316C179.682 4.69486 179.351 4.92772 179.083 5.22446C178.519 5.87784 178.224 6.71979 178.257 7.58111C178.231 8.42122 178.527 9.23971 179.083 9.87137C179.33 10.1565 179.638 10.3836 179.984 10.5363C180.329 10.6889 180.705 10.7634 181.083 10.7543C182.229 10.7543 182.936 10.3161 183.189 9.4266H180.803V6.04762H188.975L188.981 6.91062Z" fill="#5D5C60"/>
<path d="M201.039 0.351837H194.96L189.854 14.3523H195.433L195.973 12.5666H200.019L200.566 14.3523H206.171L201.039 0.351837ZM196.88 9.24735L197.999 4.71993L199.093 9.24735H196.88Z" fill="#5D5C60"/>
<path d="M218.589 9.66558C218.606 10.365 218.453 11.0583 218.145 11.6868C217.836 12.3153 217.38 12.8607 216.816 13.2769C215.471 14.2348 213.842 14.7141 212.19 14.6378C210.85 14.6194 209.522 14.3839 208.257 13.9407C207.811 13.7881 207.238 13.5557 206.544 13.2371L208.211 9.36021C208.786 9.78657 209.413 10.139 210.077 10.4091C210.636 10.6274 211.23 10.7421 211.83 10.7476C212.164 10.7618 212.495 10.6862 212.79 10.5286C212.901 10.4743 212.995 10.3903 213.061 10.286C213.127 10.1816 213.162 10.061 213.163 9.93775C213.163 9.59919 212.643 9.32038 211.603 9.11459C210.591 8.94557 209.609 8.62789 208.691 8.17193C208.172 7.85569 207.749 7.40391 207.47 6.8656C207.19 6.32728 207.064 5.72298 207.104 5.11824C207.091 4.42942 207.242 3.74726 207.544 3.12763C207.846 2.508 208.292 1.96852 208.844 1.5534C210.145 0.580362 211.744 0.0875857 213.37 0.159325C214.176 0.148299 214.981 0.244294 215.763 0.444779C216.597 0.68382 217.402 1.01561 218.162 1.43391L216.669 4.96556C215.799 4.32149 214.747 3.96827 213.663 3.95651C212.85 3.95651 212.443 4.18886 212.443 4.62036C212.443 4.95228 212.97 5.23109 214.023 5.45016C215.056 5.63095 216.055 5.97141 216.982 6.45921C217.51 6.7991 217.937 7.27293 218.219 7.83187C218.501 8.39081 218.629 9.01462 218.589 9.63903" fill="#5D5C60"/>
<path d="M0 0.0597458H24.1617C33.7064 0.0597458 33.7598 15.0427 24.1617 14.9896H14.717V8.1852L7.51846 15.7331L14.717 23.2213V16.47H25.7814C36.1259 16.47 36.1259 32.4023 25.7814 32.4023H0V0.0597458Z" fill="#CE0E2D"/>
<path d="M42.7112 0.0531082H66.3997V14.983H60.6409C70.9388 15.7796 70.9921 31.3999 60.6409 32.4089H35.1128V16.5098H49.5698V23.3607L57.1083 15.7796L49.5298 8.17857V15.0361H42.7112C32.58 15.0361 32.3667 0.0531082 42.7112 0.0531082Z" fill="#CE0E2D"/>
<path d="M70.3856 32.3956H90.3815V25.485H98.8998V16.5098H85.1026V23.3673L77.9707 15.846L85.1759 8.29142V14.9963H103.705V0.0597458H78.0241C73.6983 0.0597458 70.3856 3.04041 70.3856 8.09227V32.3956Z" fill="#CE0E2D"/>
<path d="M101.206 30.3045C101.239 30.3045 101.273 30.2647 101.306 30.2315C101.333 30.2075 101.353 30.1775 101.366 30.144C101.379 30.1106 101.383 30.0746 101.379 30.039C101.379 30.0097 101.372 29.9809 101.36 29.9545C101.347 29.9281 101.329 29.9048 101.306 29.8863C101.273 29.8531 101.239 29.8133 101.206 29.8133V29.1494H101.239C101.495 29.1316 101.748 29.2124 101.946 29.3751C102.028 29.4525 102.092 29.5465 102.135 29.6507C102.177 29.7548 102.197 29.8669 102.192 29.9792C102.189 30.1418 102.14 30.3002 102.052 30.4373C102.02 30.4933 101.973 30.5399 101.917 30.5725C101.861 30.6051 101.797 30.6226 101.732 30.6232L102.332 31.6455H101.413L101.206 31.1941V30.3045ZM100.993 29.8133V30.3045H101.206V31.214L100.993 30.8356V31.6654H100.179V29.1693H101.206V29.8332H100.993V29.8133Z" fill="#5D5C60"/>
<path d="M101.099 33.1922C100.531 33.2268 99.966 33.0907 99.4767 32.8014C98.9873 32.5121 98.5966 32.0831 98.355 31.5699C98.1135 31.0568 98.0323 30.4832 98.1221 29.9236C98.2118 29.3639 98.4683 28.844 98.8583 28.4313C99.2483 28.0186 99.7538 27.7322 100.309 27.6091C100.865 27.486 101.444 27.5319 101.973 27.741C102.502 27.95 102.956 28.3125 103.275 28.7815C103.595 29.2504 103.766 29.8042 103.765 30.3709C103.787 31.097 103.518 31.802 103.018 32.3309C102.519 32.8599 101.828 33.1697 101.099 33.1922ZM101.099 28.0674C100.634 28.0286 100.168 28.1306 99.7616 28.3601C99.3554 28.5895 99.0282 28.9357 98.8229 29.3534C98.6175 29.771 98.5434 30.2407 98.6104 30.701C98.6774 31.1612 98.8823 31.5906 99.1984 31.933C99.5144 32.2754 99.9268 32.5148 100.382 32.6199C100.837 32.725 101.313 32.691 101.748 32.5222C102.183 32.3534 102.557 32.0578 102.82 31.6739C103.084 31.2901 103.225 30.836 103.225 30.3709C103.249 29.7849 103.038 29.2136 102.64 28.7819C102.241 28.3501 101.687 28.0932 101.099 28.0674Z" fill="#5D5C60"/>
</g>
<defs>
<clipPath id="clip0_12_310">
<rect width="293.04" height="33.1922" fill="white"/>
</clipPath>
</defs>
</svg>
