<svg width="174" height="174" viewBox="0 0 174 174" fill="none" xmlns="http://www.w3.org/2000/svg">
<g clip-path="url(#clip0_485_51)">
<path d="M44.8825 170.077C43.046 170.069 41.2869 169.338 39.9883 168.041C38.6897 166.745 37.9569 164.988 37.9495 163.155V136.336C37.9495 135.593 38.2452 134.88 38.7716 134.354C39.298 133.829 40.0119 133.534 40.7564 133.534C41.5008 133.534 42.2148 133.829 42.7411 134.354C43.2675 134.88 43.5633 135.593 43.5633 136.336V163.155C43.5357 163.342 43.5488 163.533 43.6018 163.714C43.6547 163.896 43.7462 164.064 43.8701 164.207C43.9939 164.35 44.1472 164.465 44.3195 164.544C44.4918 164.623 44.679 164.663 44.8685 164.663C45.058 164.663 45.2452 164.623 45.4175 164.544C45.5898 164.465 45.743 164.35 45.8669 164.207C45.9907 164.064 46.0822 163.896 46.1352 163.714C46.1881 163.533 46.2013 163.342 46.1737 163.155V130.395C46.1723 129.794 46.3646 129.208 46.7222 128.724C47.0797 128.241 47.5835 127.885 48.1592 127.709C48.735 127.533 49.3521 127.547 49.9195 127.748C50.4869 127.949 50.9745 128.327 51.3103 128.826L56.3908 136.308C56.4634 136.375 56.5586 136.412 56.6575 136.412C56.7563 136.412 56.8515 136.375 56.9241 136.308C57.3142 136.074 57.6043 135.704 57.7389 135.27C57.8735 134.836 57.8432 134.367 57.6539 133.954C57.6465 133.851 57.6465 133.748 57.6539 133.646C57.5136 133.253 54.5383 124.089 53.9207 121.371C51.1138 109.517 46.0333 106.827 45.9772 106.799C45.4996 106.572 45.0959 106.214 44.8128 105.768C44.5298 105.322 44.3788 104.805 44.3773 104.277V68.6583C44.3773 67.9151 44.673 67.2023 45.1994 66.6768C45.7258 66.1512 46.4397 65.856 47.1842 65.856C47.9286 65.856 48.6426 66.1512 49.169 66.6768C49.6954 67.2023 49.9911 67.9151 49.9911 68.6583V102.847C52.4331 104.669 56.9241 109.377 59.3942 120.25C59.8714 122.268 62.0608 129.19 62.9309 131.88C63.6508 133.534 63.743 135.394 63.1903 137.111C62.6376 138.828 61.4779 140.286 59.9275 141.212C58.6368 141.989 57.1008 142.253 55.6241 141.952C54.1475 141.651 52.8381 140.807 51.9559 139.587V163.155C51.9561 164.076 51.7722 164.987 51.4151 165.836C51.0579 166.685 50.5346 167.455 49.8759 168.099C49.2172 168.744 48.4362 169.251 47.5788 169.59C46.7214 169.93 45.8047 170.095 44.8825 170.077Z" fill="white"/>
<path d="M19.3675 155.645H18.6377C17.0369 155.499 15.5382 154.796 14.4041 153.659C13.2701 152.522 12.5728 151.022 12.4345 149.423L11.9854 122.212C11.771 118.895 12.2855 115.571 13.4928 112.473C14.7001 109.374 16.571 106.577 18.9746 104.277V60.2514C18.9746 59.5081 19.2703 58.7953 19.7967 58.2698C20.3231 57.7442 21.037 57.449 21.7815 57.449C22.5259 57.449 23.2399 57.7442 23.7663 58.2698C24.2927 58.7953 24.5884 59.5081 24.5884 60.2514V105.482C24.5873 105.91 24.4881 106.332 24.2984 106.716C24.1086 107.099 23.8334 107.435 23.4937 107.696C21.4849 109.453 19.9084 111.649 18.8862 114.113C17.864 116.577 17.4237 119.243 17.5992 121.904L18.0483 149.311C18.293 149.607 18.5995 149.846 18.9465 150.012H19.2272C19.3809 150.07 19.5506 150.07 19.7044 150.012C19.7044 150.012 19.9008 149.675 19.9008 149.143C19.9008 148.4 20.1966 147.687 20.723 147.161C21.2494 146.636 21.9633 146.341 22.7078 146.341C23.4522 146.341 24.1661 146.636 24.6925 147.161C25.2189 147.687 25.5147 148.4 25.5147 149.143C25.5486 150.096 25.3755 151.046 25.0073 151.926C24.6391 152.807 24.0844 153.597 23.3814 154.243C22.258 155.181 20.8315 155.679 19.3675 155.645Z" fill="white"/>
<path d="M27.0023 168.675C26.0711 168.679 25.1483 168.499 24.2869 168.146C23.4254 167.793 22.6423 167.273 21.9825 166.617C21.3227 165.961 20.7992 165.181 20.442 164.322C20.0848 163.464 19.9009 162.543 19.9009 161.613V134.178C19.9009 133.435 20.1966 132.722 20.723 132.197C21.2494 131.671 21.9633 131.376 22.7078 131.376C23.4522 131.376 24.1662 131.671 24.6926 132.197C25.219 132.722 25.5147 133.435 25.5147 134.178V161.613C25.5147 161.807 25.5533 161.999 25.6284 162.178C25.7035 162.356 25.8135 162.518 25.9521 162.654C26.0906 162.79 26.2548 162.896 26.4352 162.968C26.6155 163.039 26.8083 163.074 27.0023 163.071C27.3895 163.071 27.7607 162.917 28.0344 162.644C28.3082 162.371 28.4619 162 28.4619 161.613V137.429C28.4619 136.686 28.7577 135.973 29.2841 135.447C29.8105 134.922 30.5244 134.626 31.2688 134.626C32.0133 134.626 32.7272 134.922 33.2536 135.447C33.78 135.973 34.0757 136.686 34.0757 137.429V161.585C34.0794 162.515 33.8992 163.437 33.5454 164.297C33.1916 165.157 32.6711 165.938 32.0139 166.597C31.3568 167.256 30.5757 167.779 29.7157 168.135C28.8557 168.492 27.9336 168.675 27.0023 168.675Z" fill="white"/>
<path d="M36.0406 173.86C34.0306 173.86 32.1029 173.063 30.6816 171.644C29.2604 170.225 28.4619 168.3 28.4619 166.293V138.185C28.4619 137.442 28.7576 136.729 29.284 136.204C29.8104 135.678 30.5244 135.383 31.2688 135.383C32.0133 135.383 32.7272 135.678 33.2536 136.204C33.78 136.729 34.0757 137.442 34.0757 138.185V166.405C34.0757 166.926 34.2827 167.425 34.6512 167.793C35.0197 168.16 35.5195 168.367 36.0406 168.367C36.5617 168.367 37.0614 168.16 37.4299 167.793C37.7984 167.425 38.0054 166.926 38.0054 166.405V140.736C38.0054 139.992 38.3011 139.28 38.8275 138.754C39.3539 138.228 40.0679 137.933 40.8123 137.933C41.5567 137.933 42.2707 138.228 42.7971 138.754C43.3235 139.28 43.6192 139.992 43.6192 140.736V166.405C43.5897 168.393 42.7782 170.289 41.3602 171.683C39.9421 173.078 38.0312 173.86 36.0406 173.86Z" fill="white"/>
<path d="M39.2686 63.1096C37.9812 63.1041 36.7167 62.7689 35.5962 62.1359C34.4757 61.5029 33.5366 60.5935 32.8689 59.4945C32.0983 58.1966 31.841 56.6582 32.1473 55.1808C32.4537 53.7034 33.3016 52.3935 34.5249 51.5077H10.8066C8.97528 51.5077 7.21897 50.7814 5.92403 49.4885C4.6291 48.1957 3.90161 46.4422 3.90161 44.6138C3.90161 42.7855 4.6291 41.032 5.92403 39.7391C7.21897 38.4463 8.97528 37.72 10.8066 37.72H37.6687C38.4131 37.72 39.1271 38.0152 39.6535 38.5408C40.1798 39.0663 40.4756 39.7791 40.4756 40.5224C40.4756 41.2656 40.1798 41.9784 39.6535 42.5039C39.1271 43.0295 38.4131 43.3247 37.6687 43.3247H10.8066C10.4664 43.3319 10.1421 43.47 9.90153 43.7102C9.66092 43.9504 9.52258 44.2742 9.51542 44.6138C9.51542 44.9557 9.65145 45.2836 9.8936 45.5254C10.1357 45.7671 10.4642 45.9029 10.8066 45.9029H43.6474C44.2495 45.9016 44.836 46.0936 45.3205 46.4505C45.8049 46.8075 46.1615 47.3105 46.3377 47.8853C46.5139 48.4601 46.5003 49.0762 46.2989 49.6427C46.0975 50.2092 45.719 50.696 45.2192 51.0313L37.7248 56.1597C37.661 56.2392 37.6263 56.338 37.6263 56.4399C37.6263 56.5418 37.661 56.6406 37.7248 56.7201C37.9595 57.1095 38.3314 57.3972 38.7677 57.5268C39.2039 57.6565 39.6729 57.6186 40.0826 57.4207H40.3914C40.7843 57.4207 49.9348 54.3381 52.6856 53.7216C64.5588 50.9192 67.2534 45.8469 67.2815 45.7908C67.505 45.3087 67.8611 44.8999 68.3084 44.6122C68.7557 44.3244 69.2756 44.1695 69.8077 44.1655H105.483C106.228 44.1655 106.942 44.4607 107.468 44.9863C107.995 45.5118 108.29 46.2246 108.29 46.9678C108.29 47.7111 107.995 48.4239 107.468 48.9494C106.942 49.475 106.228 49.7702 105.483 49.7702H71.2392C69.3867 52.2363 64.6992 56.6921 53.8084 59.1862C51.7874 59.6346 44.8543 61.8485 42.1597 62.7172C41.2319 63.0395 40.2489 63.1729 39.2686 63.1096Z" fill="white"/>
<path d="M24.9253 25.3337C23.9703 25.3676 23.0193 25.1947 22.1375 24.8271C21.2557 24.4595 20.464 23.9057 19.8167 23.2039C19.2656 22.549 18.8544 21.7887 18.6082 20.9694C18.362 20.1502 18.2861 19.2894 18.3852 18.4398C18.5433 16.8441 19.2557 15.354 20.399 14.2279C21.5423 13.1018 23.0444 12.4108 24.6446 12.2746L51.8996 11.8262C55.2179 11.6144 58.5425 12.1292 61.6407 13.3346C64.7389 14.5399 67.5358 16.4066 69.8357 18.8041H113.904C114.649 18.8041 115.363 19.0994 115.889 19.6249C116.415 20.1505 116.711 20.8633 116.711 21.6065C116.711 22.3497 116.415 23.0625 115.889 23.5881C115.363 24.1136 114.649 24.4089 113.904 24.4089H68.6007C68.1673 24.4122 67.739 24.3152 67.3494 24.1256C66.9599 23.936 66.6195 23.6588 66.3552 23.316C64.607 21.2934 62.4104 19.7059 59.94 18.6794C57.4696 17.653 54.7934 17.2159 52.1242 17.4029L24.6727 17.7953C24.3794 18.0246 24.1479 18.3231 23.999 18.664C24.0129 18.7663 24.0129 18.87 23.999 18.9723C23.9455 19.1266 23.9455 19.2943 23.999 19.4487C24.2636 19.651 24.5927 19.7506 24.9253 19.7289C25.6697 19.7289 26.3837 20.0242 26.9101 20.5497C27.4365 21.0753 27.7322 21.788 27.7322 22.5313C27.7322 23.2745 27.4365 23.9873 26.9101 24.5129C26.3837 25.0384 25.6697 25.3337 24.9253 25.3337Z" fill="white"/>
<path d="M36.4618 33.7407H12.3785C10.7042 33.4809 9.17801 32.632 8.07566 31.3472C6.97331 30.0624 6.36743 28.4264 6.36743 26.7347C6.36743 25.043 6.97331 23.407 8.07566 22.1222C9.17801 20.8374 10.7042 19.9885 12.3785 19.7288H39.8581C40.6026 19.7288 41.3165 20.024 41.8429 20.5496C42.3693 21.0751 42.665 21.7879 42.665 22.5311C42.665 23.2744 42.3693 23.9872 41.8429 24.5127C41.3165 25.0383 40.6026 25.3335 39.8581 25.3335H12.3785C11.9914 25.3335 11.6202 25.4871 11.3464 25.7603C11.0727 26.0336 10.9189 26.4043 10.9189 26.7908C10.9152 26.9845 10.9502 27.177 11.0219 27.357C11.0936 27.5371 11.2005 27.7011 11.3364 27.8394C11.4723 27.9777 11.6345 28.0875 11.8134 28.1625C11.9924 28.2375 12.1845 28.2761 12.3785 28.276H36.4618C37.2062 28.276 37.9202 28.5713 38.4466 29.0968C38.9729 29.6224 39.2687 30.3352 39.2687 31.0784C39.2687 31.8217 38.9729 32.5344 38.4466 33.06C37.9202 33.5855 37.2062 33.8808 36.4618 33.8808V33.7407Z" fill="white"/>
<path d="M33.2899 43.3248H7.57864C5.56866 43.3248 3.641 42.5276 2.21973 41.1086C0.798462 39.6896 0 37.7651 0 35.7583C0 33.7516 0.798462 31.827 2.21973 30.4081C3.641 28.9891 5.56866 28.1919 7.57864 28.1919H35.8442C36.5886 28.1919 37.3026 28.4871 37.8289 29.0127C38.3553 29.5382 38.6511 30.251 38.6511 30.9943C38.6511 31.7375 38.3553 32.4503 37.8289 32.9759C37.3026 33.5014 36.5886 33.7967 35.8442 33.7967H7.57864C7.05754 33.7967 6.55777 34.0033 6.18929 34.3712C5.82082 34.7391 5.61381 35.2381 5.61381 35.7583C5.61381 36.2786 5.82082 36.7776 6.18929 37.1454C6.55777 37.5133 7.05754 37.72 7.57864 37.72H33.2899C34.0343 37.72 34.7483 38.0152 35.2747 38.5408C35.8011 39.0663 36.0968 39.7791 36.0968 40.5224C36.0968 41.2656 35.8011 41.9784 35.2747 42.504C34.7483 43.0295 34.0343 43.3248 33.2899 43.3248Z" fill="white"/>
<path d="M126.9 108.116C126.156 108.116 125.442 107.821 124.915 107.295C124.389 106.77 124.093 106.057 124.093 105.314V71.1245C121.651 69.3029 117.16 64.5949 114.69 53.7217C114.213 51.7039 112.023 44.7821 111.153 42.0918C110.433 40.4374 110.341 38.5781 110.894 36.8608C111.447 35.1436 112.606 33.6859 114.157 32.7598C115.447 31.9829 116.983 31.7188 118.46 32.0199C119.937 32.321 121.246 33.1652 122.128 34.3852V10.8172C122.068 9.87301 122.202 8.92654 122.523 8.0362C122.843 7.14587 123.343 6.33057 123.991 5.64065C124.64 4.95073 125.423 4.40083 126.293 4.02493C127.162 3.64902 128.1 3.45508 129.047 3.45508C129.995 3.45508 130.933 3.64902 131.802 4.02493C132.672 4.40083 133.455 4.95073 134.103 5.64065C134.752 6.33057 135.252 7.14587 135.572 8.0362C135.892 8.92654 136.027 9.87301 135.966 10.8172V37.636C135.966 38.3792 135.671 39.092 135.144 39.6176C134.618 40.1431 133.904 40.4384 133.159 40.4384C132.415 40.4384 131.701 40.1431 131.175 39.6176C130.648 39.092 130.353 38.3792 130.353 37.636V10.8172C130.38 10.63 130.367 10.4391 130.314 10.2575C130.261 10.0759 130.17 9.90778 130.046 9.76462C129.922 9.62147 129.769 9.50662 129.596 9.4279C129.424 9.34919 129.237 9.30844 129.047 9.30844C128.858 9.30844 128.671 9.34919 128.498 9.4279C128.326 9.50662 128.173 9.62147 128.049 9.76462C127.925 9.90778 127.834 10.0759 127.781 10.2575C127.728 10.4391 127.715 10.63 127.742 10.8172V43.577C127.744 44.1782 127.551 44.7638 127.194 45.2474C126.836 45.7311 126.332 46.0871 125.757 46.263C125.181 46.4389 124.564 46.4253 123.996 46.2243C123.429 46.0232 122.941 45.6453 122.606 45.1464L117.581 37.664C117.509 37.597 117.413 37.5599 117.315 37.5599C117.216 37.5599 117.12 37.597 117.048 37.664C116.658 37.8983 116.368 38.2678 116.233 38.702C116.099 39.1362 116.129 39.6047 116.318 40.018C116.326 40.1206 116.326 40.2237 116.318 40.3263C116.318 40.7186 119.434 49.8824 120.051 52.6007C122.858 64.4548 127.939 67.1451 127.995 67.1731C128.472 67.4002 128.876 67.7575 129.159 68.2038C129.442 68.65 129.593 69.167 129.595 69.6953V105.314C129.595 106.038 129.315 106.734 128.813 107.257C128.31 107.779 127.625 108.087 126.9 108.116Z" fill="white"/>
<path d="M152.19 116.523C151.446 116.523 150.732 116.228 150.206 115.702C149.679 115.177 149.384 114.464 149.384 113.721V68.4901C149.385 68.0622 149.484 67.6401 149.674 67.2564C149.863 66.8726 150.139 66.5373 150.478 66.2763C152.487 64.5185 154.064 62.3226 155.086 59.8588C156.108 57.3949 156.548 54.7292 156.373 52.0682L155.924 24.6609C155.679 24.3648 155.372 24.1257 155.025 23.9603H154.745C154.59 23.9069 154.422 23.9069 154.268 23.9603C154.268 23.9603 154.071 24.2966 154.071 24.829C154.071 25.5722 153.775 26.285 153.249 26.8106C152.723 27.3361 152.009 27.6314 151.264 27.6314C150.52 27.6314 149.806 27.3361 149.279 26.8106C148.753 26.285 148.457 25.5722 148.457 24.829C148.423 23.8756 148.596 22.9261 148.965 22.0457C149.333 21.1653 149.888 20.3749 150.591 19.7287C151.242 19.1813 151.999 18.7742 152.816 18.5331C153.632 18.292 154.489 18.222 155.334 18.3275C156.935 18.4728 158.434 19.1757 159.568 20.3131C160.702 21.4504 161.399 22.9498 161.537 24.5488L161.987 51.7599C162.201 55.0773 161.686 58.4014 160.479 61.4994C159.272 64.5975 157.401 67.3947 154.997 69.6952V113.721C154.997 114.464 154.702 115.177 154.175 115.702C153.649 116.228 152.935 116.523 152.19 116.523Z" fill="white"/>
<path d="M151.264 42.5963C150.52 42.5963 149.806 42.3011 149.279 41.7755C148.753 41.25 148.457 40.5372 148.457 39.7939V12.3586C148.457 12.1649 148.418 11.973 148.343 11.7944C148.268 11.6157 148.158 11.4538 148.02 11.3181C147.881 11.1824 147.717 11.0757 147.537 11.0041C147.356 10.9326 147.163 10.8976 146.969 10.9014C146.778 10.9014 146.588 10.9391 146.411 11.0123C146.234 11.0855 146.073 11.1929 145.937 11.3282C145.802 11.4635 145.694 11.6241 145.621 11.8009C145.548 11.9777 145.51 12.1672 145.51 12.3586V36.5432C145.51 37.2864 145.214 37.9992 144.688 38.5248C144.161 39.0503 143.447 39.3456 142.703 39.3456C141.958 39.3456 141.245 39.0503 140.718 38.5248C140.192 37.9992 139.896 37.2864 139.896 36.5432V12.3586C140.156 10.6869 141.006 9.16323 142.293 8.06266C143.58 6.96208 145.219 6.35718 146.913 6.35718C148.608 6.35718 150.246 6.96208 151.533 8.06266C152.82 9.16323 153.67 10.6869 153.931 12.3586V39.7939C153.931 40.5135 153.655 41.2059 153.159 41.7276C152.662 42.2493 151.984 42.5603 151.264 42.5963Z" fill="white"/>
<path d="M142.703 38.5888C141.958 38.5888 141.245 38.2936 140.718 37.768C140.192 37.2425 139.896 36.5297 139.896 35.7864V7.56644C139.896 7.04617 139.689 6.54721 139.321 6.17933C138.952 5.81144 138.452 5.60477 137.931 5.60477C137.41 5.60477 136.91 5.81144 136.542 6.17933C136.173 6.54721 135.966 7.04617 135.966 7.56644V33.2363C135.966 33.9795 135.671 34.6923 135.144 35.2179C134.618 35.7434 133.904 36.0387 133.159 36.0387C132.415 36.0387 131.701 35.7434 131.175 35.2179C130.648 34.6923 130.353 33.9795 130.353 33.2363V7.56644C130.353 5.55969 131.151 3.63514 132.572 2.21616C133.994 0.797176 135.921 0 137.931 0C139.941 0 141.869 0.797176 143.29 2.21616C144.711 3.63514 145.51 5.55969 145.51 7.56644V35.7864C145.51 36.5297 145.214 37.2425 144.688 37.768C144.161 38.2936 143.447 38.5888 142.703 38.5888Z" fill="white"/>
<path d="M163.165 136.252H136.303C135.559 136.252 134.845 135.957 134.319 135.431C133.792 134.905 133.496 134.193 133.496 133.449C133.496 132.706 133.792 131.993 134.319 131.468C134.845 130.942 135.559 130.647 136.303 130.647H163.165C163.506 130.64 163.83 130.502 164.07 130.262C164.311 130.021 164.449 129.698 164.457 129.358C164.457 129.016 164.321 128.688 164.078 128.446C163.836 128.205 163.508 128.069 163.165 128.069H130.325C129.723 128.07 129.136 127.878 128.652 127.521C128.167 127.164 127.81 126.661 127.634 126.086C127.458 125.512 127.472 124.896 127.673 124.329C127.875 123.763 128.253 123.276 128.753 122.94L136.247 117.812C136.311 117.733 136.346 117.634 136.346 117.532C136.346 117.43 136.311 117.331 136.247 117.252C136.013 116.862 135.641 116.575 135.204 116.445C134.768 116.315 134.299 116.353 133.889 116.551H133.581C133.188 116.551 124.037 119.634 121.286 120.25C109.413 123.053 106.719 128.125 106.691 128.181C106.467 128.663 106.111 129.072 105.664 129.36C105.216 129.647 104.696 129.802 104.164 129.806H68.4885C67.7441 129.806 67.0302 129.511 66.5038 128.986C65.9774 128.46 65.6816 127.747 65.6816 127.004C65.6816 126.261 65.9774 125.548 66.5038 125.022C67.0302 124.497 67.7441 124.202 68.4885 124.202H102.733C104.585 121.735 109.273 117.28 120.164 114.786C122.185 114.337 129.118 111.983 131.812 111.255C133.475 110.546 135.338 110.46 137.059 111.01C138.781 111.561 140.246 112.712 141.187 114.253C141.958 115.551 142.215 117.089 141.909 118.567C141.603 120.044 140.755 121.354 139.531 122.24H163.165C164.997 122.24 166.753 122.966 168.048 124.259C169.343 125.552 170.07 127.305 170.07 129.134C170.07 130.962 169.343 132.716 168.048 134.008C166.753 135.301 164.997 136.028 163.165 136.028V136.252Z" fill="white"/>
<path d="M120.444 162.286C117.392 162.266 114.375 161.634 111.574 160.425C108.772 159.217 106.242 157.457 104.136 155.252H60.0676C59.3232 155.252 58.6093 154.957 58.0829 154.431C57.5565 153.906 57.2607 153.193 57.2607 152.45C57.2607 151.706 57.5565 150.994 58.0829 150.468C58.6093 149.942 59.3232 149.647 60.0676 149.647H105.371C105.804 149.644 106.233 149.741 106.622 149.931C107.012 150.12 107.352 150.397 107.617 150.74C109.365 152.763 111.561 154.35 114.032 155.377C116.502 156.403 119.178 156.84 121.848 156.653L149.299 156.177C149.592 155.947 149.824 155.649 149.973 155.308C149.959 155.206 149.959 155.102 149.973 155C150.026 154.845 150.026 154.678 149.973 154.523C149.713 154.363 149.406 154.294 149.103 154.327C148.358 154.327 147.644 154.032 147.118 153.506C146.591 152.981 146.296 152.268 146.296 151.525C146.296 150.782 146.591 150.069 147.118 149.543C147.644 149.018 148.358 148.722 149.103 148.722C150.058 148.689 151.009 148.861 151.89 149.229C152.772 149.597 153.564 150.15 154.211 150.852C154.762 151.507 155.174 152.267 155.42 153.087C155.666 153.906 155.742 154.767 155.643 155.616C155.485 157.212 154.772 158.702 153.629 159.828C152.486 160.954 150.984 161.645 149.383 161.782L122.128 162.23C121.568 162.278 121.006 162.297 120.444 162.286Z" fill="white"/>
<path d="M161.593 154.243H134.114C133.369 154.243 132.655 153.948 132.129 153.422C131.603 152.897 131.307 152.184 131.307 151.441C131.307 150.697 131.603 149.985 132.129 149.459C132.655 148.934 133.369 148.638 134.114 148.638H161.593C161.785 148.638 161.975 148.601 162.152 148.527C162.329 148.454 162.49 148.347 162.625 148.212C162.761 148.076 162.869 147.916 162.942 147.739C163.015 147.562 163.053 147.372 163.053 147.181C163.057 146.987 163.022 146.795 162.95 146.615C162.878 146.435 162.771 146.271 162.636 146.133C162.5 145.994 162.337 145.884 162.159 145.809C161.98 145.734 161.787 145.696 161.593 145.696H137.51C136.766 145.696 136.052 145.401 135.525 144.875C134.999 144.349 134.703 143.637 134.703 142.893C134.703 142.15 134.999 141.437 135.525 140.912C136.052 140.386 136.766 140.091 137.51 140.091H161.706C163.508 140.204 165.2 140.999 166.436 142.314C167.673 143.628 168.361 145.364 168.361 147.167C168.361 148.97 167.673 150.706 166.436 152.02C165.2 153.335 163.508 154.13 161.706 154.243H161.593Z" fill="white"/>
<path d="M166.393 145.836H138.128C137.383 145.836 136.669 145.541 136.143 145.015C135.617 144.49 135.321 143.777 135.321 143.034C135.321 142.29 135.617 141.578 136.143 141.052C136.669 140.526 137.383 140.231 138.128 140.231H166.393C166.914 140.231 167.414 140.025 167.783 139.657C168.151 139.289 168.358 138.79 168.358 138.27C168.358 137.749 168.151 137.25 167.783 136.882C167.414 136.515 166.914 136.308 166.393 136.308H140.682C139.938 136.308 139.224 136.013 138.697 135.487C138.171 134.962 137.875 134.249 137.875 133.506C137.875 132.762 138.171 132.049 138.697 131.524C139.224 130.998 139.938 130.703 140.682 130.703H166.393C168.403 130.703 170.331 131.5 171.752 132.919C173.173 134.338 173.972 136.263 173.972 138.27C173.972 140.276 173.173 142.201 171.752 143.62C170.331 145.039 168.403 145.836 166.393 145.836Z" fill="white"/>
</g>
<defs>
<clipPath id="clip0_485_51">
<rect width="174" height="174" fill="white"/>
</clipPath>
</defs>
</svg>
