<svg width="210" height="167" viewBox="0 0 210 167" fill="none" xmlns="http://www.w3.org/2000/svg">
<g clip-path="url(#clip0_485_2)">
<path d="M155.963 127.186C155.214 127.184 154.487 126.934 153.894 126.475C153.302 126.017 152.878 125.375 152.688 124.65C152.498 123.925 152.553 123.158 152.844 122.468C153.136 121.778 153.647 121.203 154.299 120.834L205.245 92.0605C206.029 91.61 206.959 91.4894 207.832 91.7251C208.704 91.9608 209.448 92.5336 209.898 93.3174C210.348 94.1013 210.469 95.0319 210.233 95.9047C209.998 96.7775 209.425 97.5209 208.641 97.9714L157.695 126.745C157.168 127.044 156.57 127.196 155.963 127.186Z" fill="white"/>
<path d="M150.631 140.707C147.794 140.72 145.017 139.892 142.649 138.329L126.788 128.137C126.411 127.899 126.085 127.588 125.828 127.224C125.571 126.859 125.388 126.447 125.291 126.012C125.193 125.576 125.182 125.126 125.258 124.686C125.334 124.247 125.496 123.826 125.735 123.45C125.974 123.073 126.284 122.746 126.649 122.489C127.013 122.232 127.425 122.05 127.86 121.952C128.296 121.854 128.746 121.843 129.185 121.919C129.625 121.996 130.045 122.158 130.422 122.396L146.419 132.588L146.759 132.825C147.438 133.369 151.785 134.898 153.552 132.825C154.074 132.356 154.497 131.786 154.794 131.15C155.092 130.514 155.258 129.825 155.284 129.123C155.162 128.119 154.65 127.203 153.857 126.575L122.373 106.634C117.583 109.844 112.015 111.699 106.257 112.004C100.5 112.309 94.7672 111.052 89.6652 108.367C88.1099 107.582 86.796 106.391 85.8632 104.919C84.9303 103.448 84.4132 101.751 84.3668 100.01C84.3126 98.2501 84.7276 96.5077 85.5692 94.9614C86.4108 93.4152 87.6487 92.1209 89.1557 91.2113L117.414 74.226C132.12 65.8352 146.895 73.8523 152.023 77.2154L185.987 59.2109C186.785 58.7874 187.717 58.6981 188.58 58.9625C189.443 59.2269 190.166 59.8233 190.589 60.6207C191.013 61.418 191.102 62.3509 190.838 63.2142C190.574 64.0774 189.977 64.8003 189.18 65.2237L153.314 84.2813C152.731 84.5907 152.07 84.7234 151.412 84.663C150.755 84.6027 150.129 84.352 149.612 83.9416C149.612 83.9416 134.464 72.3576 120.776 80.1708L92.5861 97.1562C92.1123 97.4291 91.7224 97.8268 91.4589 98.306C91.1954 98.7852 91.0684 99.3275 91.0917 99.8738C91.0943 100.405 91.2451 100.925 91.5271 101.375C91.8091 101.825 92.2112 102.188 92.688 102.422C101.722 107.042 111.029 106.192 120.369 99.9078C120.923 99.5425 121.573 99.3479 122.237 99.3479C122.901 99.3479 123.55 99.5425 124.105 99.9078L157.627 121.14L157.933 121.377C159.086 122.269 160.041 123.391 160.737 124.671C161.433 125.952 161.854 127.364 161.975 128.817C162.05 130.408 161.786 131.998 161.2 133.479C160.615 134.961 159.721 136.301 158.578 137.411C157.753 138.387 156.743 139.189 155.606 139.772C154.47 140.355 153.229 140.707 151.955 140.809C151.512 140.806 151.069 140.772 150.631 140.707Z" fill="white"/>
<path d="M46.2931 123.416C45.6423 123.414 45.0057 123.225 44.459 122.872L1.56238 95.3218C0.801216 94.8353 0.26446 94.0663 0.0701901 93.1839C-0.12408 92.3016 0.0400503 91.3782 0.526474 90.6169C1.0129 89.8556 1.78177 89.3187 2.66394 89.1244C3.54612 88.9301 4.46934 89.0943 5.2305 89.5808L48.1272 117.165C48.5041 117.404 48.8303 117.714 49.0872 118.079C49.3442 118.444 49.5267 118.856 49.6245 119.291C49.7223 119.726 49.7333 120.176 49.6571 120.616C49.5808 121.056 49.4187 121.476 49.18 121.853C48.8701 122.336 48.4427 122.733 47.9378 123.006C47.433 123.28 46.8671 123.42 46.2931 123.416Z" fill="white"/>
<path d="M108.413 87.0328C107.663 87.0305 106.934 86.7796 106.342 86.3195L99.277 80.8502C93.4352 76.3321 88.6123 75.3129 83.0422 77.4531L59.7088 86.1836C59.2085 86.3715 58.6709 86.4386 58.1398 86.3796C57.6087 86.3206 57.0989 86.137 56.6521 85.8439L24.8956 65.1217C24.1456 64.629 23.6209 63.8593 23.4364 62.981C23.2518 62.1026 23.4223 61.1868 23.9107 60.4338C24.4033 59.6835 25.1728 59.1588 26.051 58.9742C26.9293 58.7896 27.8448 58.9602 28.5977 59.4486L58.9277 79.1516L80.6647 71.0326C84.5032 69.6145 88.6583 69.2828 92.6731 70.0739C96.6879 70.865 100.407 72.7484 103.421 75.5168L110.451 80.9521C111.156 81.5077 111.613 82.3197 111.721 83.2109C111.829 84.102 111.58 84.9998 111.029 85.708C110.719 86.1101 110.324 86.4379 109.871 86.6672C109.419 86.8964 108.921 87.0214 108.413 87.0328Z" fill="white"/>
<path d="M48.4668 138.838C47.0138 138.855 45.5741 138.56 44.2444 137.974C42.9146 137.388 41.7255 136.525 40.7569 135.441L40.0097 134.558C38.2409 132.517 37.3546 129.857 37.5457 127.162C37.7367 124.468 38.9895 121.96 41.0286 120.188L48.4328 113.768C49.4272 112.852 50.594 112.143 51.8652 111.682C53.1364 111.221 54.4865 111.018 55.837 111.084C58.5265 111.247 61.0422 112.468 62.8336 114.481L63.5808 115.331C64.4587 116.348 65.1268 117.529 65.5465 118.806C65.9662 120.083 66.1292 121.43 66.0262 122.77C65.8329 125.394 64.6124 127.835 62.6298 129.564L55.2596 135.985C53.4304 137.75 51.0076 138.768 48.4668 138.838ZM55.2596 117.98C54.4384 117.972 53.642 118.262 53.0179 118.796L45.6138 125.216C44.9341 125.806 44.5165 126.643 44.4528 127.541C44.3891 128.439 44.6845 129.326 45.2741 130.006L46.0213 130.889C46.314 131.231 46.6716 131.511 47.0734 131.713C47.4752 131.915 47.9131 132.036 48.3618 132.067C48.8105 132.099 49.261 132.041 49.6871 131.897C50.1133 131.753 50.5066 131.526 50.8442 131.229L58.1126 124.673C58.4541 124.38 58.7341 124.022 58.9363 123.62C59.1386 123.218 59.259 122.78 59.2906 122.332C59.3222 121.883 59.2643 121.432 59.1204 121.006C58.9765 120.58 58.7494 120.186 58.4522 119.849L57.705 118.999C57.4099 118.662 57.0509 118.386 56.6487 118.188C56.2465 117.989 55.809 117.873 55.3615 117.844L55.2596 117.98Z" fill="white"/>
<path d="M58.1125 149.981C56.6595 149.997 55.2199 149.702 53.8901 149.116C52.5604 148.531 51.3713 147.667 50.4027 146.584L49.6555 145.734C48.7853 144.707 48.1272 143.518 47.7192 142.236C47.3111 140.953 47.1611 139.602 47.278 138.261C47.3701 136.961 47.7174 135.691 48.3002 134.526C48.883 133.36 49.6897 132.32 50.6744 131.467L60.8636 122.498C61.8771 121.619 63.0542 120.949 64.3274 120.526C65.6005 120.103 66.9447 119.935 68.2827 120.033C69.6207 120.131 70.9262 120.492 72.1243 121.096C73.3224 121.7 74.3895 122.534 75.2644 123.551L76.0116 124.401C77.7538 126.335 78.6895 128.864 78.6268 131.467C78.4643 134.157 77.2431 136.673 75.2304 138.465L65.0412 147.399C63.1363 149.097 60.6638 150.018 58.1125 149.981ZM67.6564 126.575C66.8308 126.576 66.034 126.878 65.4148 127.424L55.2256 136.358C54.8817 136.651 54.5995 137.008 54.3954 137.411C54.1913 137.813 54.0694 138.252 54.0368 138.702C54.0071 139.151 54.0668 139.602 54.2126 140.028C54.3584 140.453 54.5872 140.846 54.8859 141.182L55.5992 142.032C55.8918 142.373 56.2494 142.653 56.6512 142.856C57.053 143.058 57.4909 143.178 57.9396 143.21C58.3883 143.241 58.8388 143.184 59.2649 143.04C59.6911 142.896 60.0844 142.668 60.4221 142.371L70.6113 133.403C71.2853 132.815 71.7002 131.985 71.7661 131.093C71.8004 130.646 71.7461 130.197 71.6062 129.772C71.4663 129.346 71.2436 128.952 70.9509 128.613L70.2037 127.764C69.8886 127.395 69.4982 127.099 69.0588 126.893C68.6195 126.688 68.1413 126.58 67.6564 126.575Z" fill="white"/>
<path d="M67.6564 161.123H66.9092C64.2197 160.96 61.704 159.739 59.9126 157.726L59.1994 156.877C58.3183 155.865 57.6456 154.69 57.2199 153.417C56.7942 152.145 56.6237 150.801 56.7184 149.463C56.8131 148.125 57.171 146.819 57.7716 145.619C58.3721 144.42 59.2036 143.351 60.2183 142.473L71.5623 132.622C72.5736 131.74 73.749 131.068 75.0209 130.642C76.2929 130.216 77.6363 130.045 78.9743 130.14C80.3122 130.235 81.6183 130.593 82.8176 131.194C84.0169 131.794 85.0858 132.626 85.9631 133.641L86.7103 134.49C88.4589 136.461 89.3937 139.023 89.3255 141.658C89.163 144.348 87.9418 146.864 85.9291 148.656L74.4492 158.643C72.5642 160.273 70.1477 161.155 67.6564 161.123ZM78.2532 136.834C77.432 136.826 76.6357 137.115 76.0116 137.649L64.6676 147.501C64.326 147.794 64.046 148.151 63.8438 148.553C63.6416 148.955 63.5212 149.393 63.4896 149.842C63.458 150.29 63.5158 150.741 63.6597 151.167C63.8036 151.593 64.0308 151.987 64.3279 152.325L65.0412 153.174C65.3362 153.512 65.6952 153.788 66.0975 153.986C66.4997 154.184 66.9372 154.301 67.3847 154.329C67.8322 154.378 68.2849 154.33 68.7125 154.189C69.1401 154.049 69.5328 153.818 69.8641 153.514L81.2421 143.662C81.5797 143.367 81.8556 143.008 82.0538 142.606C82.252 142.203 82.3686 141.766 82.3968 141.318C82.4312 140.871 82.3768 140.422 82.2369 139.997C82.097 139.571 81.8744 139.177 81.5817 138.838L80.8345 137.989C80.5277 137.639 80.1523 137.356 79.7317 137.158C79.311 136.959 78.854 136.849 78.3891 136.834H78.2532Z" fill="white"/>
<path d="M84.0612 166.524C82.6082 166.541 81.1685 166.246 79.8388 165.66C78.509 165.074 77.3199 164.211 76.3513 163.127L75.6041 162.04C74.7251 161.027 74.0549 159.849 73.6319 158.576C73.209 157.302 73.0416 155.958 73.1394 154.62C73.2373 153.282 73.5983 151.976 74.202 150.777C74.8056 149.579 75.6399 148.512 76.657 147.637L82.0913 142.949C84.1321 141.18 86.7916 140.293 89.4855 140.484C92.1795 140.675 94.6873 141.928 96.4581 143.968L97.2053 144.817C98.0863 145.829 98.759 147.004 99.1847 148.276C99.6105 149.549 99.7809 150.892 99.6862 152.231C99.5916 153.569 99.2337 154.875 98.6331 156.075C98.0325 157.274 97.201 158.343 96.1864 159.221L90.7521 163.943C88.9083 165.586 86.5306 166.503 84.0612 166.524ZM88.7482 147.365C87.927 147.357 87.1307 147.646 86.5066 148.18L81.2422 152.902C80.5555 153.484 80.128 154.315 80.0534 155.212C80.0191 155.659 80.0734 156.108 80.2133 156.534C80.3532 156.959 80.5759 157.353 80.8686 157.692L81.6158 158.541C81.9061 158.885 82.2618 159.168 82.6624 159.374C83.0629 159.579 83.5003 159.703 83.9491 159.737C84.3978 159.772 84.849 159.717 85.2764 159.576C85.7038 159.435 86.0989 159.21 86.4387 158.915L91.8729 154.193C92.2145 153.9 92.4945 153.543 92.6967 153.141C92.8989 152.739 93.0193 152.301 93.0509 151.852C93.0825 151.403 93.0247 150.953 92.8808 150.527C92.7369 150.1 92.5097 149.707 92.2126 149.369L91.4314 148.452C91.1363 148.114 90.7773 147.838 90.3751 147.64C89.9729 147.442 89.5354 147.325 89.0879 147.297L88.7482 147.365Z" fill="white"/>
<path d="M139.457 152.97C136.981 152.979 134.579 152.126 132.664 150.558L114.934 138.261C114.197 137.746 113.693 136.961 113.534 136.075C113.375 135.19 113.573 134.278 114.085 133.539C114.6 132.801 115.385 132.297 116.27 132.138C117.155 131.979 118.067 132.177 118.806 132.69L136.739 145.055C137.199 145.458 137.741 145.754 138.328 145.925C138.915 146.095 139.532 146.134 140.136 146.04C141.083 145.869 141.932 145.347 142.513 144.579C143.294 143.546 143.69 142.273 143.634 140.978C143.67 139.936 143.291 138.922 142.581 138.159L126.788 128.205C126.411 127.967 126.085 127.656 125.828 127.291C125.571 126.927 125.388 126.515 125.291 126.08C125.193 125.644 125.182 125.194 125.258 124.754C125.334 124.315 125.496 123.894 125.735 123.517C125.974 123.14 126.284 122.814 126.649 122.557C127.013 122.3 127.425 122.118 127.86 122.02C128.296 121.922 128.746 121.911 129.185 121.987C129.625 122.064 130.045 122.226 130.422 122.464L146.419 132.656L146.759 132.893C147.905 133.884 148.826 135.11 149.459 136.487C150.092 137.864 150.422 139.361 150.427 140.877C150.536 143.812 149.597 146.69 147.778 148.996C146.145 150.994 143.86 152.354 141.325 152.834C140.707 152.93 140.082 152.976 139.457 152.97Z" fill="white"/>
<path d="M126.075 161.089C123.87 161.089 121.725 160.374 119.961 159.051L105.662 147.976C105.31 147.702 105.015 147.361 104.794 146.973C104.574 146.584 104.432 146.156 104.377 145.713C104.265 144.818 104.514 143.915 105.068 143.204C105.622 142.492 106.436 142.029 107.331 141.918C108.226 141.806 109.128 142.055 109.84 142.609L124.071 153.65C124.438 153.919 124.856 154.113 125.299 154.218C125.743 154.323 126.203 154.338 126.652 154.261C127.405 154.117 128.088 153.722 128.588 153.14C129.332 152.007 129.657 150.649 129.505 149.301C129.488 148.642 129.249 148.007 128.826 147.501L115.002 138.261C114.63 138.013 114.31 137.695 114.061 137.323C113.811 136.952 113.637 136.535 113.549 136.097C113.461 135.658 113.46 135.207 113.546 134.768C113.632 134.329 113.804 133.911 114.051 133.539C114.299 133.166 114.617 132.846 114.989 132.597C115.36 132.348 115.777 132.174 116.215 132.085C116.653 131.997 117.105 131.996 117.544 132.082C117.982 132.168 118.4 132.34 118.772 132.588L132.766 141.896C133.755 142.708 134.568 143.715 135.152 144.855C135.736 145.994 136.08 147.242 136.162 148.52C136.523 151.712 135.621 154.919 133.649 157.454C132.127 159.232 130.04 160.431 127.739 160.851C127.191 160.975 126.635 161.054 126.075 161.089Z" fill="white"/>
<path d="M109.228 167.034C106.169 166.939 103.204 165.946 100.703 164.18L92.7219 158.881C92.3243 158.646 91.9788 158.332 91.7066 157.959C91.4344 157.586 91.2411 157.161 91.1386 156.711C91.0361 156.26 91.0266 155.793 91.1106 155.339C91.1945 154.885 91.3703 154.453 91.627 154.068C91.8837 153.684 92.2161 153.357 92.6038 153.106C92.9914 152.855 93.4262 152.685 93.8816 152.608C94.3369 152.53 94.8033 152.547 95.2521 152.656C95.7009 152.765 96.1228 152.964 96.4919 153.242L104.406 158.643C109.602 162.04 111.98 159.527 112.591 158.643C112.966 158.194 113.238 157.667 113.388 157.101C113.538 156.535 113.561 155.943 113.458 155.366C113.354 154.79 113.126 154.243 112.788 153.765C112.451 153.286 112.012 152.887 111.504 152.596L105.662 148.078C105.31 147.804 105.015 147.463 104.794 147.075C104.574 146.686 104.432 146.258 104.377 145.815C104.265 144.92 104.514 144.017 105.068 143.305C105.622 142.594 106.436 142.131 107.331 142.02C108.226 141.908 109.128 142.157 109.84 142.711L115.648 147.229C117.523 148.593 118.919 150.515 119.637 152.72C120.355 154.925 120.359 157.301 119.647 159.508C118.935 161.715 117.545 163.641 115.674 165.011C113.803 166.381 111.547 167.124 109.228 167.136V167.034Z" fill="white"/>
<path fill-rule="evenodd" clip-rule="evenodd" d="M105.017 0.441518C104.759 0.390262 104.494 0.390262 104.236 0.441518L83.212 9.17199C82.8671 9.31748 82.5665 9.55089 82.34 9.84894C82.1135 10.147 81.9692 10.4992 81.9214 10.8705C80.8536 21.1178 81.6359 31.4737 84.2309 41.4442C87.2198 51.4316 93.1635 60.5697 104.609 63.5251H105.017H105.492C116.802 60.5697 122.746 51.4316 125.871 41.4442C128.466 31.4737 129.248 21.1178 128.18 10.8705C128.133 10.4992 127.988 10.147 127.762 9.84894C127.535 9.55089 127.235 9.31748 126.89 9.17199L105.866 0.611369C105.599 0.493532 105.309 0.435564 105.017 0.441518ZM105.017 4.78977L85.9631 12.5691C85.1291 21.8057 85.9106 31.1171 88.2727 40.0853C90.786 48.578 95.6089 56.4932 105.017 59.1769C114.425 56.4932 119.248 48.578 121.761 40.0853C124.123 31.1171 124.905 21.8057 124.071 12.5691L105.017 4.78977ZM95.1334 31.3209L101.417 37.6394C101.617 37.8534 101.859 38.0239 102.128 38.1405C102.396 38.2571 102.686 38.3173 102.979 38.3173C103.272 38.3173 103.562 38.2571 103.831 38.1405C104.099 38.0239 104.341 37.8534 104.541 37.6394L115.206 24.9004C115.56 24.4717 115.73 23.9203 115.679 23.3667C115.628 22.8131 115.361 22.302 114.934 21.945C114.724 21.7654 114.48 21.6298 114.216 21.5461C113.953 21.4624 113.675 21.4323 113.4 21.4576C113.124 21.483 112.857 21.5632 112.613 21.6935C112.369 21.8239 112.154 22.0018 111.98 22.2167L102.775 32.9515L98.2241 28.3654C97.819 28.0505 97.3128 27.8944 96.8007 27.9264C96.2886 27.9583 95.8058 28.1763 95.4429 28.5392C95.0801 28.9021 94.8623 29.385 94.8303 29.8972C94.7983 30.4094 94.9544 30.9157 95.2693 31.3209H95.1334Z" fill="white"/>
<path d="M105.017 63.8989C104.826 63.934 104.63 63.934 104.44 63.8989C94.4541 61.2832 87.4575 53.7077 84.0611 41.5122C81.4798 31.5394 80.6977 21.1861 81.7516 10.9386C81.805 10.4946 81.9744 10.0725 82.2427 9.71466C82.511 9.35688 82.8687 9.07603 83.2799 8.90035L104.304 0.339726C104.52 0.185765 104.761 0.0707988 105.017 2.07171e-05C105.345 -0.00137884 105.669 0.0681486 105.968 0.203843L126.992 8.76446C127.4 8.93439 127.757 9.20921 128.025 9.56115C128.294 9.91308 128.464 10.3297 128.52 10.7687C129.57 21.0163 128.788 31.369 126.211 41.3424C122.576 53.6058 115.648 61.1133 105.662 63.7291C105.471 63.7642 105.276 63.7642 105.085 63.7291L105.017 63.8989ZM105.017 0.849288C104.803 0.813809 104.585 0.813809 104.372 0.849288L83.3818 9.40991C83.1033 9.52519 82.8596 9.71117 82.675 9.94949C82.4903 10.1878 82.3711 10.4702 82.3289 10.7687C81.3133 20.9604 82.095 31.2513 84.6385 41.1725C88.2047 53.0962 94.8277 60.4339 104.575 62.9817H104.983H105.458C115.206 60.4339 121.999 53.0962 125.395 41.1725C127.924 31.2835 128.705 21.0287 127.705 10.8706C127.657 10.5782 127.536 10.3028 127.351 10.0709C127.167 9.83893 126.926 9.65814 126.652 9.54579L105.662 0.985171C105.449 0.949692 105.231 0.949692 105.017 0.985171V0.849288ZM105.017 59.6186C96.8316 57.2746 91.0917 50.7523 88.0349 40.2553C85.6247 31.2375 84.786 21.8718 85.5555 12.5692V12.2974H85.7933L105.017 4.34827L124.275 12.1955V12.5692C125.099 21.8621 124.318 31.2276 121.965 40.2553C118.84 50.7523 113.1 57.2407 104.983 59.6186H105.017ZM86.3707 12.8409C85.5809 21.9652 86.3621 31.1574 88.6802 40.0175C91.703 50.2087 97.2052 56.4933 105.017 58.7693C112.829 56.4933 118.331 50.1748 121.354 40.0175C123.672 31.1574 124.453 21.9652 123.663 12.8409L105.017 5.26548L86.3707 12.8409ZM102.911 38.6927C102.247 38.6868 101.612 38.4181 101.145 37.9453L94.8277 31.6268C94.5922 31.3967 94.4047 31.122 94.2765 30.8187C94.1482 30.5154 94.0816 30.1896 94.0805 29.8603C94.0874 29.3636 94.2393 28.8797 94.5175 28.4682C94.7958 28.0568 95.1882 27.7356 95.6465 27.5443C96.1049 27.353 96.6091 27.2999 97.0973 27.3915C97.5854 27.4831 98.0361 27.7154 98.394 28.0598L102.741 32.4081L111.47 21.9451C111.683 21.684 111.946 21.4682 112.243 21.3107C112.541 21.1531 112.867 21.0569 113.202 21.0279C113.865 20.977 114.522 21.1838 115.036 21.6054C115.289 21.8159 115.497 22.0744 115.648 22.366C115.8 22.6576 115.892 22.9764 115.919 23.3039C115.953 23.6381 115.919 23.9757 115.82 24.2966C115.721 24.6175 115.558 24.9153 115.342 25.1723L105.017 37.7754C104.791 38.0471 104.512 38.2689 104.196 38.4268C103.881 38.5847 103.535 38.6752 103.183 38.6927H102.911ZM96.6278 28.1617C96.4051 28.159 96.1843 28.203 95.9795 28.2907C95.7748 28.3785 95.5907 28.5081 95.4391 28.6713C95.2766 28.8238 95.1472 29.008 95.0586 29.2125C94.9701 29.417 94.9245 29.6374 94.9245 29.8603C94.9245 30.0831 94.9701 30.3036 95.0586 30.5081C95.1472 30.7126 95.2766 30.8968 95.4391 31.0492L101.621 37.3338C101.966 37.6471 102.411 37.8276 102.877 37.8434C103.348 37.8048 103.786 37.5857 104.1 37.2319L114.595 24.6288C114.742 24.4633 114.855 24.2696 114.925 24.0593C114.995 23.849 115.021 23.6267 115.002 23.4058C114.939 22.9616 114.722 22.5533 114.391 22.2508C114.224 22.1076 114.029 22.0005 113.819 21.9362C113.608 21.8719 113.387 21.8518 113.168 21.8772C112.948 21.89 112.733 21.9514 112.539 22.0572C112.346 22.1629 112.178 22.3102 112.048 22.4886L102.707 33.665L97.7147 28.6713C97.4265 28.3748 97.0401 28.1936 96.6278 28.1617Z" fill="white"/>
</g>
<defs>
<clipPath id="clip0_485_2">
<rect width="210" height="167" fill="white"/>
</clipPath>
</defs>
</svg>
