<svg width="184" height="126" viewBox="0 0 184 126" fill="none" xmlns="http://www.w3.org/2000/svg">
<g clip-path="url(#clip0_485_17)">
<path d="M136.653 91.0513C135.997 91.0493 135.36 90.8301 134.841 90.4278C134.322 90.0256 133.95 89.4628 133.784 88.8271C133.617 88.1914 133.666 87.5185 133.921 86.9131C134.176 86.3077 134.624 85.8038 135.195 85.4798L179.834 60.244C180.52 59.8489 181.336 59.7431 182.1 59.9498C182.865 60.1566 183.516 60.659 183.911 61.3464C184.305 62.0339 184.411 62.8501 184.205 63.6156C183.998 64.3811 183.496 65.0331 182.81 65.4282L138.171 90.664C137.709 90.9265 137.185 91.0602 136.653 91.0513Z" fill="white"/>
<path d="M131.981 102.909C129.496 102.921 127.062 102.195 124.988 100.824L111.09 91.8856C110.76 91.6763 110.474 91.4039 110.249 91.084C110.024 90.7641 109.864 90.4029 109.778 90.0211C109.693 89.6393 109.683 89.2443 109.75 88.8588C109.817 88.4732 109.959 88.1046 110.168 87.774C110.377 87.4433 110.649 87.1571 110.968 86.9318C111.288 86.7064 111.649 86.5462 112.03 86.4605C112.411 86.3747 112.806 86.365 113.191 86.4319C113.576 86.4988 113.944 86.641 114.275 86.8504L128.291 95.7887L128.589 95.9972C129.184 96.4739 132.993 97.8147 134.54 95.9972C134.998 95.5856 135.369 95.0859 135.629 94.528C135.89 93.97 136.036 93.3652 136.058 92.7496C135.952 91.869 135.503 91.066 134.808 90.5151L107.222 73.0258C103.025 75.8408 98.1462 77.468 93.1017 77.7355C88.0571 78.003 83.0341 76.9007 78.5638 74.5453C77.201 73.8572 76.0499 72.8124 75.2325 71.5219C74.4151 70.2314 73.962 68.7435 73.9214 67.2159C73.8739 65.6726 74.2375 64.1444 74.9749 62.7883C75.7123 61.4322 76.7969 60.297 78.1174 59.4992L102.877 44.6021C115.763 37.2429 128.708 44.2743 133.201 47.224L162.96 31.433C163.659 31.0616 164.476 30.9832 165.232 31.2151C165.989 31.447 166.622 31.9701 166.993 32.6695C167.364 33.3688 167.442 34.187 167.21 34.9441C166.979 35.7012 166.456 36.3352 165.758 36.7066L134.332 53.4212C133.821 53.6926 133.242 53.8089 132.666 53.756C132.09 53.7031 131.542 53.4832 131.088 53.1232C131.088 53.1232 117.816 42.9634 105.823 49.8161L81.123 64.7132C80.7079 64.9526 80.3663 65.3014 80.1354 65.7217C79.9046 66.1419 79.7933 66.6176 79.8136 67.0968C79.8159 67.5626 79.9481 68.0187 80.1952 68.4134C80.4423 68.8082 80.7945 69.1261 81.2123 69.3313C89.1282 73.3834 97.2822 72.6385 105.466 67.1265C105.952 66.8062 106.521 66.6354 107.103 66.6354C107.684 66.6354 108.254 66.8062 108.739 67.1265L138.112 85.748L138.379 85.9565C139.39 86.7383 140.227 87.7223 140.836 88.8457C141.446 89.9691 141.815 91.2073 141.921 92.4815C141.986 93.8773 141.755 95.2712 141.242 96.5707C140.729 97.8702 139.946 99.0458 138.945 100.019C138.222 100.875 137.337 101.579 136.341 102.09C135.345 102.601 134.258 102.91 133.142 102.999C132.753 102.997 132.365 102.967 131.981 102.909Z" fill="white"/>
<path d="M40.5616 87.7442C39.9914 87.7427 39.4336 87.5772 38.9546 87.2675L1.36898 63.1043C0.70206 62.6776 0.231759 62.0031 0.0615417 61.2293C-0.108676 60.4554 0.0351336 59.6455 0.461333 58.9778C0.887532 58.3101 1.56121 57.8392 2.33416 57.6688C3.10712 57.4984 3.91603 57.6424 4.58296 58.0691L42.1686 82.262C42.4989 82.4713 42.7847 82.7437 43.0098 83.0636C43.2349 83.3835 43.3949 83.7447 43.4805 84.1265C43.5662 84.5083 43.5759 84.9033 43.5091 85.2888C43.4423 85.6744 43.3003 86.043 43.0911 86.3736C42.8195 86.7975 42.4451 87.1455 42.0027 87.3852C41.5604 87.6248 41.0646 87.7484 40.5616 87.7442Z" fill="white"/>
<path d="M94.9908 55.8346C94.3333 55.8325 93.695 55.6125 93.1755 55.2089L86.9856 50.412C81.8671 46.4494 77.6413 45.5555 72.7608 47.4326L52.3164 55.0897C51.878 55.2545 51.407 55.3134 50.9416 55.2617C50.4762 55.2099 50.0296 55.0489 49.6381 54.7918L21.8134 36.6173C21.1562 36.1851 20.6965 35.5101 20.5348 34.7397C20.3731 33.9693 20.5225 33.1661 20.9504 32.5057C21.382 31.8477 22.0563 31.3875 22.8257 31.2256C23.5952 31.0637 24.3974 31.2132 25.0571 31.6416L51.6319 48.9223L70.6777 41.8015C74.0409 40.5577 77.6817 40.2668 81.1994 40.9606C84.7171 41.6545 87.9755 43.3063 90.6162 45.7343L96.7764 50.5014C97.3941 50.9887 97.794 51.7009 97.8888 52.4825C97.9836 53.2641 97.7655 54.0515 97.2823 54.6726C97.0112 55.0253 96.6647 55.3128 96.2682 55.5139C95.8717 55.7149 95.4352 55.8245 94.9908 55.8346Z" fill="white"/>
<path d="M42.4661 101.271C41.193 101.285 39.9316 101.027 38.7664 100.513C37.6013 99.9988 36.5595 99.2414 35.7108 98.2912L35.0561 97.5166C33.5063 95.7263 32.7297 93.3933 32.8971 91.0301C33.0645 88.6669 34.1622 86.467 35.9488 84.9136L42.4363 79.2825C43.3076 78.4788 44.3299 77.8568 45.4437 77.4527C46.5575 77.0486 47.7405 76.8705 48.9238 76.9287C51.2803 77.0713 53.4845 78.1426 55.0541 79.9082L55.7088 80.653C56.4781 81.5455 57.0634 82.5814 57.4312 83.7012C57.7989 84.8211 57.9417 86.0026 57.8515 87.178C57.6821 89.4792 56.6127 91.6205 54.8756 93.1368L48.4179 98.768C46.8152 100.316 44.6924 101.209 42.4661 101.271ZM48.4179 82.977C47.6984 82.9698 47.0006 83.2238 46.4538 83.6921L39.9663 89.3232C39.3708 89.841 39.0049 90.5743 38.9491 91.362C38.8933 92.1497 39.1521 92.9274 39.6687 93.5242L40.3234 94.2988C40.5799 94.5984 40.8932 94.8441 41.2452 95.0215C41.5973 95.1989 41.981 95.3045 42.3741 95.3322C42.7672 95.3599 43.162 95.3092 43.5353 95.1829C43.9087 95.0567 44.2534 94.8574 44.5492 94.5968L50.9176 88.8465C51.2169 88.5897 51.4622 88.276 51.6394 87.9236C51.8166 87.5711 51.9221 87.187 51.9498 86.7934C51.9775 86.3998 51.9268 86.0046 51.8007 85.6307C51.6746 85.2569 51.4756 84.9119 51.2152 84.6157L50.5605 83.8708C50.302 83.5746 49.9874 83.3326 49.635 83.1587C49.2826 82.9849 48.8993 82.8826 48.5072 82.8578L48.4179 82.977Z" fill="white"/>
<path d="M50.9177 111.043C49.6446 111.058 48.3832 110.799 47.2181 110.285C46.053 109.772 45.0111 109.014 44.1624 108.064L43.5077 107.319C42.7453 106.418 42.1687 105.375 41.8111 104.25C41.4536 103.125 41.3222 101.941 41.4246 100.764C41.5053 99.6241 41.8096 98.5109 42.3202 97.4884C42.8309 96.466 43.5377 95.5543 44.4005 94.8055L53.3282 86.9398C54.2162 86.1687 55.2476 85.5808 56.3631 85.2097C57.4786 84.8387 58.6564 84.6919 59.8287 84.7777C61.0011 84.8635 62.1449 85.1803 63.1947 85.7098C64.2445 86.2393 65.1795 86.9712 65.946 87.8634L66.6007 88.6083C68.1272 90.3051 68.9471 92.5225 68.8921 94.8055C68.7498 97.1648 67.6797 99.3717 65.9162 100.943L56.9885 108.779C55.3195 110.268 53.1531 111.076 50.9177 111.043ZM59.28 90.5151C58.5566 90.5162 57.8584 90.781 57.3159 91.26L48.3882 99.0959C48.0869 99.3521 47.8396 99.6659 47.6608 100.019C47.4819 100.372 47.3751 100.757 47.3466 101.152C47.3206 101.545 47.3729 101.941 47.5006 102.314C47.6283 102.687 47.8289 103.032 48.0906 103.327L48.7155 104.072C48.972 104.371 49.2853 104.617 49.6373 104.794C49.9894 104.972 50.3731 105.077 50.7662 105.105C51.1593 105.133 51.5541 105.082 51.9275 104.956C52.3008 104.829 52.6455 104.63 52.9413 104.369L61.869 96.5038C62.4595 95.9881 62.8231 95.2601 62.8808 94.4778C62.9109 94.086 62.8633 93.6921 62.7407 93.3188C62.6181 92.9456 62.423 92.6002 62.1666 92.3028L61.5119 91.5579C61.2358 91.2347 60.8937 90.9744 60.5088 90.7945C60.1238 90.6146 59.7048 90.5194 59.28 90.5151Z" fill="white"/>
<path d="M59.2799 120.816H58.6252C56.2686 120.673 54.0644 119.602 52.4948 117.836L51.8699 117.091C51.0979 116.204 50.5085 115.173 50.1355 114.057C49.7625 112.942 49.6131 111.763 49.6961 110.589C49.779 109.416 50.0926 108.27 50.6189 107.218C51.1451 106.166 51.8736 105.228 52.7627 104.459L62.7022 95.8183C63.5883 95.0454 64.6181 94.4553 65.7326 94.0818C66.847 93.7084 68.0242 93.5589 69.1965 93.6419C70.3688 93.725 71.5131 94.0389 72.564 94.5658C73.6148 95.0926 74.5514 95.822 75.32 96.7121L75.9747 97.457C77.5068 99.1859 78.3259 101.433 78.2661 103.744C78.1237 106.103 77.0537 108.31 75.2902 109.881L65.2317 118.641C63.5801 120.07 61.4627 120.844 59.2799 120.816ZM68.5647 99.5128C67.8452 99.5056 67.1474 99.7596 66.6006 100.228L56.6611 108.868C56.3618 109.125 56.1165 109.439 55.9393 109.791C55.7621 110.144 55.6566 110.528 55.6289 110.921C55.6012 111.315 55.6519 111.71 55.778 112.084C55.9041 112.458 56.1031 112.803 56.3635 113.099L56.9884 113.844C57.247 114.14 57.5615 114.382 57.9139 114.556C58.2664 114.73 58.6497 114.832 59.0418 114.857C59.4339 114.899 59.8306 114.858 60.2052 114.734C60.5799 114.611 60.9239 114.409 61.2142 114.142L71.1835 105.501C71.4793 105.243 71.7211 104.928 71.8947 104.575C72.0684 104.222 72.1705 103.838 72.1953 103.446C72.2254 103.054 72.1778 102.66 72.0552 102.287C71.9326 101.913 71.7375 101.568 71.4811 101.271L70.8264 100.526C70.5576 100.219 70.2287 99.9708 69.8601 99.7966C69.4915 99.6223 69.0911 99.5257 68.6837 99.5128H68.5647Z" fill="white"/>
<path d="M73.6536 125.553C72.3805 125.567 71.1191 125.309 69.954 124.795C68.7889 124.281 67.747 123.524 66.8983 122.574L66.2436 121.62C65.4734 120.731 64.8862 119.699 64.5156 118.582C64.145 117.465 63.9984 116.286 64.0841 115.112C64.1698 113.938 64.4862 112.793 65.0151 111.742C65.544 110.691 66.275 109.755 67.1661 108.987L71.9276 104.876C73.7157 103.324 76.046 102.547 78.4064 102.714C80.7668 102.882 82.9641 103.981 84.5156 105.77L85.1703 106.514C85.9423 107.402 86.5317 108.433 86.9047 109.549C87.2778 110.664 87.4271 111.843 87.3441 113.016C87.2612 114.19 86.9476 115.336 86.4214 116.388C85.8951 117.44 85.1666 118.378 84.2776 119.147L79.5161 123.289C77.9006 124.73 75.8173 125.534 73.6536 125.553ZM77.7603 108.749C77.0408 108.742 76.3431 108.996 75.7963 109.464L71.1836 113.606C70.582 114.116 70.2074 114.845 70.142 115.632C70.112 116.023 70.1596 116.417 70.2821 116.79C70.4047 117.164 70.5998 117.509 70.8563 117.807L71.511 118.551C71.7653 118.853 72.077 119.101 72.428 119.281C72.779 119.461 73.1622 119.57 73.5554 119.6C73.9486 119.631 74.3439 119.583 74.7184 119.459C75.0928 119.335 75.439 119.138 75.7367 118.879L80.4982 114.738C80.7974 114.481 81.0428 114.167 81.22 113.815C81.3972 113.462 81.5027 113.078 81.5303 112.685C81.558 112.291 81.5073 111.896 81.3812 111.522C81.2551 111.148 81.0561 110.803 80.7958 110.507L80.1113 109.702C79.8528 109.406 79.5382 109.164 79.1858 108.99C78.8334 108.817 78.45 108.714 78.0579 108.689L77.7603 108.749Z" fill="white"/>
<path d="M122.19 113.665C120.021 113.673 117.917 112.925 116.239 111.55L100.704 100.764C100.058 100.313 99.6169 99.6238 99.4774 98.8474C99.338 98.0711 99.5117 97.2711 99.9605 96.6228C100.411 95.9757 101.1 95.5339 101.875 95.3943C102.65 95.2546 103.449 95.4286 104.097 95.8779L119.81 106.723C120.213 107.076 120.688 107.337 121.202 107.486C121.716 107.635 122.257 107.67 122.786 107.587C123.616 107.437 124.36 106.979 124.869 106.306C125.553 105.399 125.9 104.283 125.851 103.148C125.882 102.234 125.551 101.344 124.928 100.675L111.09 91.9451C110.76 91.7358 110.474 91.4634 110.249 91.1435C110.024 90.8236 109.864 90.4624 109.778 90.0806C109.693 89.6988 109.683 89.3038 109.75 88.9182C109.817 88.5327 109.959 88.1641 110.168 87.8335C110.377 87.5028 110.649 87.2166 110.968 86.9912C111.288 86.7659 111.649 86.6057 112.03 86.52C112.411 86.4342 112.806 86.4245 113.191 86.4914C113.576 86.5583 113.944 86.7005 114.275 86.9098L128.291 95.8481L128.589 96.0567C129.593 96.9258 130.4 98.0006 130.954 99.2084C131.509 100.416 131.798 101.729 131.803 103.058C131.898 105.633 131.075 108.157 129.481 110.179C128.051 111.932 126.049 113.124 123.827 113.546C123.286 113.63 122.738 113.67 122.19 113.665Z" fill="white"/>
<path d="M110.466 120.786C108.534 120.786 106.654 120.159 105.109 118.998L92.5803 109.286C92.2716 109.045 92.0132 108.746 91.82 108.405C91.6267 108.065 91.5024 107.689 91.454 107.3C91.3563 106.515 91.5742 105.724 92.0596 105.099C92.545 104.475 93.2582 104.07 94.0423 103.972C94.8264 103.874 95.6172 104.092 96.2407 104.578L108.71 114.261C109.031 114.498 109.398 114.667 109.786 114.76C110.175 114.852 110.578 114.865 110.971 114.797C111.632 114.671 112.229 114.324 112.668 113.814C113.32 112.82 113.604 111.629 113.471 110.448C113.457 109.869 113.247 109.312 112.876 108.868L100.764 100.764C100.438 100.547 100.157 100.268 99.9389 99.9422C99.7204 99.6165 99.5681 99.251 99.4908 98.8664C99.4134 98.4819 99.4124 98.0858 99.4879 97.7009C99.5634 97.3159 99.7139 96.9497 99.9308 96.623C100.148 96.2963 100.427 96.0155 100.752 95.7968C101.077 95.5781 101.442 95.4256 101.826 95.3481C102.211 95.2707 102.606 95.2697 102.991 95.3453C103.375 95.4209 103.741 95.5716 104.067 95.7887L116.328 103.952C117.195 104.665 117.907 105.548 118.419 106.548C118.931 107.547 119.232 108.641 119.304 109.762C119.62 112.562 118.83 115.374 117.102 117.598C115.769 119.157 113.94 120.209 111.924 120.578C111.444 120.686 110.956 120.755 110.466 120.786Z" fill="white"/>
<path d="M95.7051 126C93.0241 125.916 90.4267 125.046 88.2356 123.497L81.2422 118.849C80.8938 118.643 80.5911 118.368 80.3526 118.041C80.1141 117.713 79.9447 117.341 79.8549 116.946C79.7651 116.551 79.7568 116.141 79.8304 115.743C79.9039 115.344 80.0579 114.965 80.2829 114.628C80.5078 114.292 80.799 114.004 81.1387 113.784C81.4783 113.564 81.8593 113.415 82.2583 113.347C82.6573 113.279 83.0659 113.294 83.4591 113.389C83.8524 113.485 84.222 113.66 84.5455 113.903L91.4793 118.641C96.0324 121.62 98.1156 119.415 98.6512 118.641C98.9799 118.246 99.2182 117.785 99.3494 117.288C99.4807 116.791 99.5016 116.272 99.4108 115.767C99.3201 115.261 99.1198 114.782 98.824 114.362C98.5282 113.942 98.1442 113.593 97.699 113.337L92.5804 109.375C92.2717 109.134 92.0133 108.835 91.82 108.494C91.6268 108.154 91.5024 107.778 91.4541 107.39C91.3564 106.605 91.5742 105.813 92.0596 105.189C92.545 104.564 93.2582 104.159 94.0423 104.061C94.8264 103.963 95.6172 104.181 96.2408 104.667L101.33 108.63C102.972 109.826 104.196 111.512 104.825 113.446C105.454 115.38 105.457 117.463 104.834 119.399C104.21 121.335 102.992 123.024 101.352 124.226C99.7131 125.427 97.7367 126.079 95.7051 126.089V126Z" fill="white"/>
<path d="M106.894 30.9562C106.027 30.9138 105.191 30.621 104.487 30.1131C103.783 29.6052 103.24 28.9039 102.926 28.094C102.611 27.2842 102.537 26.4004 102.713 25.5495C102.89 24.6986 103.308 23.917 103.918 23.2991L118.292 8.90845C119.138 8.11902 120.257 7.68925 121.414 7.70968C122.57 7.73011 123.674 8.19914 124.492 9.01797C125.309 9.83679 125.778 10.9415 125.798 12.0993C125.819 13.2571 125.389 14.3776 124.601 15.2248L110.227 29.6453C109.791 30.0808 109.27 30.422 108.697 30.6475C108.124 30.873 107.51 30.9781 106.894 30.9562Z" fill="white"/>
<path d="M92.2827 29.258C91.0988 29.258 89.9634 28.7871 89.1263 27.949C88.2891 27.1109 87.8188 25.9741 87.8188 24.7888V4.46914C87.8188 3.28385 88.2891 2.1471 89.1263 1.30898C89.9634 0.470851 91.0988 0 92.2827 0C93.4666 0 94.602 0.470851 95.4391 1.30898C96.2763 2.1471 96.7466 3.28385 96.7466 4.46914V24.8186C96.7387 25.9988 96.2649 27.1279 95.4286 27.9595C94.5924 28.7912 93.4614 29.258 92.2827 29.258Z" fill="white"/>
<path d="M78.3257 30.9564C77.7395 30.9575 77.1588 30.8422 76.6174 30.6172C76.0759 30.3921 75.5844 30.0618 75.1713 29.6454L60.7679 15.225C59.9392 14.3832 59.4746 13.2487 59.4746 12.0668C59.4746 10.8848 59.9392 9.75036 60.7679 8.90859C61.1803 8.4906 61.6715 8.15874 62.213 7.93224C62.7545 7.70574 63.3355 7.58911 63.9224 7.58911C64.5092 7.58911 65.0902 7.70574 65.6317 7.93224C66.1732 8.15874 66.6644 8.4906 67.0768 8.90859L81.4802 23.2992C82.0995 23.9282 82.5202 24.7257 82.6898 25.5924C82.8595 26.4591 82.7706 27.3566 82.4343 28.1731C82.0979 28.9895 81.529 29.6888 80.7984 30.1837C80.0678 30.6787 79.2078 30.9474 78.3257 30.9564Z" fill="white"/>
</g>
<defs>
<clipPath id="clip0_485_17">
<rect width="184" height="126" fill="white"/>
</clipPath>
</defs>
</svg>
